<svg width="640" height="640" xmlns="http://www.w3.org/2000/svg" xmlns:xlink="http://www.w3.org/1999/xlink" preserveAspectRatio="xMidYMid meet">
 <defs>
  <path id="c1QuRzsNro" d="m102.49,502.16l178.29,-338.3c-47.54,-89.88 -73.95,-139.81 -79.23,-149.8c-6.58,-12.36 -23.3,-9.21 -25.46,4.63c-5.1,32.61 -30.59,195.64 -76.48,489.09l2.88,-5.62z"/>
  <path id="a23qvHidLC" d="m398.77,213.29c-35.49,-67.75 -55.21,-105.4 -59.16,-112.93c-5.61,-10.69 -21.29,-10.72 -26.85,0c-2.11,4.02 -12.64,24.11 -31.6,60.28l0,5.13l58.47,108.09l59.14,-60.57z"/>
  <path id="gHFZcCvPz" d="m396.07,212.45c-34.5,-65.68 -53.66,-102.18 -57.49,-109.47c-5.46,-10.4 -18.73,-11.48 -24.13,-1.06c-2.12,4.08 -12.71,24.48 -31.77,61.21l-0.95,3.13l56.85,105.08l57.49,-58.89z"/>
  <path id="esUAMwU4H" d="m99.09,510.11l6.27,-2.55l230.56,-229.7l2.92,-7.95l-57.52,-109.6l-183.96,351.54l1.73,-1.74z"/>
  <path id="e2K73keEh" d="m347.02,627.69l208.65,-116.37c-35.75,-220.18 -55.61,-342.51 -59.58,-366.97c-1.87,-11.48 -15.95,-16.02 -24.17,-7.79c-24.97,25.02 -149.82,150.11 -374.56,375.29c124.48,69.49 193.63,108.11 207.46,115.83c13.11,7.32 29.08,7.32 42.2,0.01"/>
  <path id="bo7yMOBb" d="m485.46,136.1l0.66,0.11l0.65,0.14l0.64,0.18l0.64,0.22l0.62,0.26l0.6,0.29l0.6,0.33l0.58,0.36l0.56,0.4l0.54,0.43l0.52,0.46l0.51,0.5l0.48,0.52l0.45,0.56l0.44,0.59l0.4,0.62l0.39,0.65l0.35,0.68l0.32,0.71l0.29,0.74l0.26,0.76l0.23,0.79l0.19,0.82l0.16,0.84l59.13,364.18l-207.07,115.49l-0.98,0.53l-0.99,0.5l-1,0.48l-1.01,0.45l-1.02,0.42l-1.03,0.4l-1.03,0.36l-1.04,0.34l-1.05,0.32l-1.05,0.28l-1.06,0.26l-1.06,0.23l-1.07,0.21l-1.07,0.17l-1.08,0.15l-1.07,0.12l-1.08,0.1l-1.08,0.07l-1.09,0.04l-1.08,0.01l-1.08,-0.01l-1.08,-0.04l-1.08,-0.07l-1.08,-0.1l-1.08,-0.12l-1.07,-0.15l-1.07,-0.18l-1.07,-0.2l-1.06,-0.23l-1.06,-0.26l-1.05,-0.29l-1.05,-0.31l-1.04,-0.34l-1.04,-0.37l-1.02,-0.4l-1.02,-0.42l-1.01,-0.45l-1,-0.48l-0.99,-0.5l-0.98,-0.53l-205.19,-114.69l158.77,-158.6l-3.93,-38.37l48.13,-5.79l170.31,-170.15l0.62,-0.59l0.63,-0.54l0.64,-0.49l0.65,-0.45l0.66,-0.4l0.67,-0.36l0.67,-0.31l0.68,-0.27l0.67,-0.22l0.69,-0.18l0.68,-0.14l0.68,-0.09l0.68,-0.06l0.68,-0.01l0.67,0.03l0.67,0.06z"/>
  <path id="agCf2O3Zu" d="m304.82,624.25c-13.72,-7.61 -82.31,-45.67 -205.79,-114.17l-1.67,1.77c124.48,69.49 193.63,108.11 207.46,115.83c13.11,7.32 29.08,7.32 42.2,0.01c13.91,-7.76 83.46,-46.55 208.65,-116.37l-0.51,-3.15l-208.14,116.09c-19.39,4.87 -33.46,4.87 -42.2,-0.01z"/>
  <path id="aqGuW0F7z" d="m101.17,506.51l180.18,-341.88l0.38,-3.62c-47.66,-89.51 -74.13,-139.24 -79.43,-149.19c-6.65,-12.5 -25.39,-9.34 -27.57,4.65c-5.16,33.03 -30.95,198.15 -77.37,495.38l3.81,-5.34z"/>
  <path id="a2SznJ0Hm1" d="m297.7,197.66l3.97,0.78l4.21,1.02l4.45,1.24l4.65,1.46l4.84,1.65l5,1.83l5.16,2l5.29,2.15l5.4,2.28l5.48,2.42l5.56,2.51l5.61,2.62l5.65,2.69l5.65,2.75l5.65,2.81l5.62,2.84l5.58,2.86l5.51,2.87l5.42,2.86l5.32,2.84l5.19,2.8l5.06,2.75l4.88,2.68l4.71,2.6l4.5,2.5l4.28,2.4l4.04,2.26l3.78,2.13l3.5,1.98l3.2,1.81l2.88,1.62l2.54,1.42l2.18,1.22l1.8,0.98l-0.32,91.29l0.11,2.03l0.16,1.86l0.21,1.72l0.25,1.58l0.29,1.45l0.34,1.32l0.36,1.21l0.4,1.11l0.42,1.02l0.45,0.92l0.48,0.85l0.49,0.78l0.51,0.72l0.52,0.67l0.54,0.63l0.54,0.59l0.54,0.57l0.55,0.55l0.54,0.54l0.54,0.55l0.53,0.56l0.52,0.57l0.51,0.61l0.49,0.64l0.47,0.69l0.45,0.74l0.42,0.8l0.39,0.88l0.36,0.96l0.32,1.05l0.29,1.15l0.24,1.25l0.2,1.37l0.16,1.5l0.1,1.63l0.05,1.77l-0.01,1.93l-0.06,2.08l-0.13,2.26l-0.2,2.43l-0.27,2.67l-0.33,2.49l-0.38,2.33l-0.43,2.17l-0.48,2.03l-0.52,1.88l-0.56,1.75l-0.6,1.63l-0.64,1.5l-0.66,1.4l-0.7,1.29l-0.73,1.2l-0.75,1.11l-0.78,1.03l-0.79,0.95l-0.81,0.89l-0.83,0.84l-0.84,0.78l-0.85,0.73l-0.86,0.71l-0.86,0.67l-0.87,0.66l-0.86,0.64l-0.86,0.63l-0.86,0.64l-0.85,0.65l-0.83,0.66l-0.83,0.69l-0.8,0.72l-0.79,0.76l-0.77,0.81l-0.74,0.87l-0.72,0.92l-0.69,1l-0.66,1.07l-0.62,1.16l-0.59,1.25l-0.54,1.34l-0.51,1.46l-0.46,1.57l-0.5,1.9l-0.48,1.85l-0.45,1.81l-0.42,1.78l-0.41,1.73l-0.38,1.71l-0.35,1.68l-0.34,1.65l-0.31,1.62l-0.29,1.6l-0.28,1.58l-0.25,1.57l-0.24,1.54l-0.21,1.54l-0.2,1.52l-0.19,1.52l-0.17,1.51l-0.15,1.5l-0.14,1.51l-0.13,1.5l-0.11,1.51l-0.1,1.52l-0.09,1.52l-0.08,1.54l-0.06,1.55l-0.06,1.56l-0.05,1.59l-0.04,1.6l-0.04,1.63l-0.02,1.65l-0.02,1.68l-0.02,1.72l-0.01,1.74l0,1.78l-0.01,1.82l0,1.86l0.01,1.9l0,1.94l0,2l0.01,2.04l21.02,0.13l6.36,29.01l-8.11,0l-2.63,-21.95l-7.91,7.35l-15.22,-1.57l0.25,-71.38l-17.36,21.36l-0.4,1.11l-0.39,1.11l-0.39,1.1l-0.39,1.08l-0.38,1.08l-0.37,1.07l-0.38,1.05l-0.37,1.05l-0.37,1.04l-0.37,1.03l-0.37,1.02l-0.37,1.01l-0.36,1l-0.37,1l-0.37,0.99l-0.36,0.98l-0.37,0.97l-0.37,0.97l-0.38,0.96l-0.37,0.96l-0.38,0.95l-0.38,0.94l-0.38,0.94l-0.39,0.94l-0.39,0.93l-0.4,0.92l-0.4,0.92l-0.4,0.92l-0.41,0.92l-0.42,0.91l-0.43,0.9l-0.43,0.91l-0.44,0.9l-0.44,0.9l-0.46,0.9l-0.46,0.9l-0.47,0.89l-0.48,0.89l-0.49,0.9l-0.5,0.89l-0.63,1.11l-0.6,1.08l-0.58,1.04l-0.55,1.01l-0.54,0.97l-0.53,0.94l-0.51,0.9l-0.5,0.87l-0.49,0.84l-0.49,0.81l-0.49,0.77l-0.48,0.74l-0.49,0.72l-0.49,0.68l-0.5,0.65l-0.51,0.62l-0.53,0.59l-0.53,0.56l-0.56,0.53l-0.57,0.5l-0.6,0.48l-0.62,0.45l-0.65,0.42l-0.68,0.4l-0.71,0.36l-0.75,0.35l-0.78,0.31l-0.82,0.3l-0.87,0.27l-0.91,0.24l-0.96,0.22l-1.01,0.2l-1.06,0.17l-1.12,0.15l-1.17,0.13l-1.24,0.11l-1.29,0.08l-1.37,0.07l-1.43,0.04l-1.5,0.03l-0.43,0.19l-0.41,0.18l-0.38,0.17l-0.35,0.14l-0.33,0.14l-0.3,0.12l-0.28,0.12l-0.26,0.1l-0.24,0.09l-0.21,0.09l-0.2,0.08l-0.18,0.08l-0.17,0.07l-0.15,0.07l-0.14,0.07l-0.12,0.07l-0.11,0.07l-0.11,0.07l-0.09,0.08l-0.09,0.08l-0.07,0.09l-0.08,0.1l-0.07,0.1l-0.06,0.11l-0.07,0.13l-0.06,0.14l-0.06,0.15l-0.07,0.16l-0.07,0.18l-0.07,0.2l-0.08,0.22l-0.08,0.24l-0.09,0.25l-0.1,0.28l-0.11,0.3l-0.12,0.33l-0.13,0.35l-0.15,0.38l-0.16,0.41l-0.17,0.43l-36.75,0l-10.66,-3.59l-0.6,-0.28l-0.58,-0.28l-0.55,-0.3l-0.54,-0.32l-0.52,-0.32l-0.49,-0.34l-0.48,-0.35l-0.47,-0.37l-0.45,-0.37l-0.43,-0.39l-0.42,-0.4l-0.41,-0.42l-0.4,-0.42l-0.39,-0.44l-0.37,-0.45l-0.37,-0.47l-0.36,-0.47l-0.36,-0.49l-0.35,-0.5l-0.34,-0.52l-0.34,-0.52l-0.34,-0.54l-0.34,-0.55l-0.33,-0.57l-0.34,-0.57l-0.34,-0.59l-0.34,-0.6l-0.34,-0.61l-0.35,-0.62l-0.36,-0.64l-0.36,-0.65l-0.36,-0.66l-0.38,-0.67l-0.38,-0.69l-0.4,-0.69l-0.41,-0.71l-0.41,-0.72l-0.44,-0.74l-0.44,-0.74l-0.46,-0.76l-0.45,0.93l-0.41,0.87l-0.37,0.83l-0.34,0.78l-0.31,0.75l-0.28,0.7l-0.25,0.67l-0.22,0.64l-0.19,0.6l-0.16,0.58l-0.15,0.56l-0.11,0.53l-0.1,0.51l-0.07,0.49l-0.05,0.47l-0.03,0.47l-0.02,0.45l0.01,0.45l0.02,0.44l0.03,0.44l0.05,0.43l0.06,0.45l0.07,0.44l0.08,0.46l0.09,0.46l0.1,0.48l0.11,0.49l0.11,0.51l0.11,0.53l0.12,0.56l0.12,0.58l0.13,0.6l0.12,0.64l0.12,0.67l0.12,0.71l0.12,0.75l0.11,0.78l0.11,0.83l0.09,0.88l0.09,0.92l-5.98,0l-0.32,-0.76l-0.29,-0.69l-0.27,-0.62l-0.24,-0.56l-0.21,-0.49l-0.19,-0.44l-0.17,-0.38l-0.15,-0.34l-0.14,-0.28l-0.12,-0.25l-0.1,-0.2l-0.09,-0.17l-0.09,-0.14l-0.07,-0.11l-0.07,-0.08l-0.06,-0.06l-0.06,-0.05l-0.06,-0.03l-0.06,-0.03l-0.07,-0.02l-0.06,-0.01l-0.08,-0.02l-0.08,-0.02l-0.09,-0.04l-0.1,-0.04l-0.12,-0.06l-0.13,-0.09l-0.15,-0.1l-0.17,-0.14l-0.19,-0.16l-0.21,-0.2l-0.24,-0.24l-0.26,-0.28l-0.29,-0.33l-0.33,-0.37l-0.35,-0.43l-0.38,-0.49l-0.43,-0.55l-0.45,-0.62l-0.5,-0.68l1.04,-1.8l1,-1.79l0.98,-1.78l0.94,-1.76l0.91,-1.75l0.88,-1.73l0.85,-1.72l0.82,-1.69l0.8,-1.68l0.77,-1.66l0.74,-1.64l0.72,-1.62l0.7,-1.6l0.67,-1.57l0.66,-1.56l0.63,-1.53l0.61,-1.5l0.59,-1.48l0.57,-1.46l0.56,-1.43l0.54,-1.4l0.52,-1.37l0.51,-1.35l0.5,-1.31l0.48,-1.29l0.47,-1.25l0.46,-1.22l0.45,-1.19l0.44,-1.16l0.43,-1.12l0.42,-1.09l0.42,-1.06l0.41,-1.01l0.41,-0.98l0.4,-0.95l0.4,-0.9l0.4,-0.87l0.39,-0.83l0.4,-0.78l0.4,-0.75l0.06,0.99l0.04,0.97l0.03,0.93l0,0.92l0,0.89l-0.03,0.86l-0.03,0.85l-0.06,0.83l-0.07,0.8l-0.08,0.79l-0.09,0.78l-0.11,0.76l-0.12,0.75l-0.13,0.73l-0.15,0.73l-0.15,0.71l-0.16,0.71l-0.18,0.7l-0.18,0.69l-0.2,0.69l-0.2,0.68l-0.21,0.69l-0.21,0.68l-0.22,0.68l-0.23,0.69l-0.24,0.68l-0.24,0.69l-0.25,0.7l-0.25,0.7l-0.25,0.71l-0.26,0.72l-0.26,0.73l-0.26,0.74l-0.27,0.76l-0.26,0.77l-0.27,0.78l-0.26,0.8l-0.27,0.82l-0.27,0.83l-0.26,0.86l16.51,24.75l1.11,0.12l1.07,0.11l1.05,0.11l1.02,0.1l0.99,0.08l0.97,0.08l0.94,0.07l0.93,0.06l0.9,0.05l0.88,0.05l0.87,0.03l0.85,0.03l0.84,0.02l0.82,0.01l0.82,0.01l0.8,-0.01l0.8,-0.01l0.79,-0.01l0.79,-0.02l0.78,-0.03l0.78,-0.04l0.78,-0.04l0.78,-0.05l0.79,-0.05l0.78,-0.06l0.8,-0.06l0.8,-0.07l0.81,-0.07l0.82,-0.08l0.83,-0.08l0.85,-0.09l0.86,-0.09l0.88,-0.1l0.9,-0.1l0.91,-0.1l0.94,-0.11l0.96,-0.11l0.98,-0.11l1.01,-0.12l1.04,-0.12l1.11,-0.12l1.09,-0.11l1.05,-0.1l1.02,-0.09l1,-0.08l0.97,-0.07l0.95,-0.07l0.92,-0.06l0.9,-0.06l0.88,-0.05l0.85,-0.06l0.84,-0.05l0.81,-0.06l0.8,-0.06l0.78,-0.07l0.77,-0.07l0.75,-0.08l0.74,-0.08l0.72,-0.1l0.72,-0.11l0.7,-0.12l0.7,-0.14l0.68,-0.14l0.68,-0.17l0.68,-0.19l0.66,-0.2l0.67,-0.22l0.66,-0.25l0.66,-0.27l0.66,-0.29l0.66,-0.32l0.66,-0.34l0.66,-0.38l0.67,-0.4l0.67,-0.44l0.68,-0.47l0.68,-0.5l0.69,-0.54l0.7,-0.57l0.71,-0.61l0.75,-0.68l0.75,-0.74l0.75,-0.79l0.77,-0.85l0.77,-0.89l0.78,-0.95l0.78,-0.99l0.78,-1.04l0.79,-1.07l0.8,-1.12l0.8,-1.15l0.79,-1.18l0.81,-1.21l0.8,-1.24l0.8,-1.27l0.81,-1.29l0.8,-1.31l0.8,-1.32l0.8,-1.35l0.8,-1.35l0.8,-1.37l0.79,-1.37l0.79,-1.38l0.78,-1.38l0.78,-1.38l0.78,-1.37l0.77,-1.37l0.76,-1.37l0.75,-1.35l0.75,-1.34l0.74,-1.33l0.73,-1.31l0.72,-1.29l0.71,-1.26l0.7,-1.24l0.68,-1.21l0.68,-1.18l0.67,-1.15l0.65,-1.11l0.64,-1.07l12.93,-41.06l2.75,0.33l2.64,0.1l2.54,-0.11l2.43,-0.32l2.32,-0.51l2.22,-0.7l2.11,-0.88l2.01,-1.04l1.89,-1.19l1.79,-1.34l1.68,-1.48l1.57,-1.59l1.46,-1.72l1.35,-1.81l1.25,-1.91l1.13,-2l1.02,-2.06l0.91,-2.13l0.79,-2.19l0.69,-2.22l0.57,-2.26l0.46,-2.28l0.34,-2.29l0.24,-2.29l0.12,-2.29l0,-2.26l-0.11,-2.24l-0.23,-2.2l-0.34,-2.14l-0.46,-2.09l-0.57,-2.02l-0.7,-1.94l-0.8,-1.85l-0.93,-1.74l-1.05,-1.64l-1.16,-1.52l-1.28,-1.38l-1.4,-1.24l-1.53,-1.09l-1.64,-0.93l-0.62,0.53l-0.59,0.54l-0.56,0.55l-0.52,0.54l-0.49,0.55l-0.45,0.55l-0.43,0.55l-0.41,0.55l-0.38,0.55l-0.35,0.56l-0.34,0.56l-0.31,0.55l-0.3,0.56l-0.29,0.57l-0.27,0.56l-0.26,0.56l-0.25,0.57l-0.24,0.56l-0.24,0.57l-0.23,0.57l-0.23,0.56l-0.24,0.57l-0.23,0.57l-0.24,0.57l-0.24,0.57l-0.25,0.57l-0.26,0.57l-0.27,0.57l-0.29,0.57l-0.3,0.56l-0.32,0.57l-0.33,0.57l-0.36,0.57l-0.38,0.56l-0.41,0.57l-0.43,0.57l-0.46,0.56l-0.49,0.56l-0.52,0.57l-0.56,0.56l-15.13,-0.27l0.75,-27.53l-1.2,1.12l-1.24,1.09l-1.28,1.05l-1.31,1.02l-1.35,0.98l-1.38,0.95l-1.42,0.9l-1.44,0.87l-1.47,0.83l-1.5,0.8l-1.52,0.75l-1.55,0.71l-1.58,0.68l-1.59,0.63l-1.62,0.6l-1.64,0.55l-1.65,0.51l-1.67,0.47l-1.69,0.43l-1.7,0.39l-1.72,0.34l-1.73,0.3l-1.73,0.25l-1.75,0.22l-1.76,0.16l-1.76,0.12l-1.77,0.08l-1.77,0.03l-1.77,-0.01l-1.78,-0.06l-1.77,-0.11l-1.78,-0.16l-1.77,-0.2l-1.77,-0.25l-1.76,-0.3l-1.76,-0.35l-1.75,-0.4l-1.74,-0.45l-1.73,-0.5l-1.72,-0.55l0.17,-1.02l0.19,-0.94l0.19,-0.86l0.21,-0.79l0.21,-0.72l0.21,-0.65l0.23,-0.6l0.22,-0.55l0.24,-0.5l0.23,-0.45l0.24,-0.42l0.24,-0.39l0.25,-0.36l0.24,-0.33l0.24,-0.32l0.24,-0.31l0.25,-0.3l0.23,-0.3l0.24,-0.3l0.23,-0.3l0.22,-0.32l0.22,-0.34l0.22,-0.36l0.21,-0.39l0.19,-0.42l0.19,-0.46l0.19,-0.5l0.17,-0.55l0.16,-0.61l0.14,-0.66l0.14,-0.72l0.12,-0.79l0.11,-0.87l0.09,-0.94l0.08,-1.03l0.06,-1.11l0.05,-1.21l0.02,-1.31l0.01,-1.41l-0.01,-1.52l0.34,0.36l0.33,0.34l0.32,0.32l0.3,0.31l0.29,0.28l0.27,0.28l0.22,0.21l-0.3,-0.41l-0.53,-0.59l-0.59,-0.56l-0.65,-0.54l4.83,-10.54l0.35,1.98l0.27,1.71l0.2,1.47l0.15,1.26l0.1,1.09l0.09,0.96l0.07,0.85l0.09,0.79l0.11,0.75l0.16,0.75l0.21,0.78l0.28,0.86l0.38,0.95l0.47,1.1l0.6,1.26l0.74,1.48l0.8,-0.29l0.79,-0.29l0.77,-0.27l0.77,-0.27l0.77,-0.26l0.78,-0.25l0.8,-0.25l0.82,-0.23l0.86,-0.23l0.89,-0.22l0.93,-0.2l0.98,-0.2l1.04,-0.19l1.11,-0.18l1.17,-0.17l1.26,-0.16l1.01,-0.01l0.92,0l0.84,-0.01l0.75,-0.01l0.66,-0.01l0.6,0l0.51,-0.01l0.45,-0.01l0.39,0l0.32,-0.01l0.26,0l0.21,0l0.16,0.01l0.12,0.01l0.07,0.01l0.04,0.02l0,0.02l-0.03,0.03l-0.05,0.04l-0.08,0.04l-0.09,0.05l-0.11,0.05l-0.12,0.07l-0.13,0.07l-0.13,0.08l-0.12,0.09l-0.13,0.1l-0.11,0.11l-0.1,0.12l-0.08,0.13l-0.07,0.14l-0.04,0.16l0,0.16l0.02,0.18l0.06,0.2l0.1,0.2l0.14,0.22l0.2,0.24l0.24,0.25l0.3,0.27l0.03,0.73l0.03,0.69l0.02,0.65l0.01,0.6l0.01,0.56l0.01,0.53l0,0.49l0,0.46l0,0.42l0,0.4l0,0.37l0,0.34l0,0.32l0,0.3l0.01,0.28l0,0.26l0.02,0.25l0.01,0.24l0.02,0.22l0.03,0.22l0.04,0.21l0.04,0.2l0.05,0.2l0.05,0.2l0.07,0.21l0.08,0.21l0.08,0.21l0.1,0.22l0.11,0.23l0.12,0.24l0.14,0.26l0.15,0.27l0.16,0.29l0.18,0.31l0.2,0.34l0.21,0.36l0.23,0.38l0.24,0.41l0.27,0.45l0.28,0.47l0.27,-0.01l0.27,-0.01l0.27,0l0.27,-0.01l0.27,-0.01l0.28,0l0.27,-0.01l0.28,-0.01l0.28,0l0.28,-0.01l0.28,-0.01l0.28,-0.01l0.28,-0.01l0.28,-0.01l0.29,-0.01l0.28,-0.02l0.28,-0.02l0.28,-0.01l0.28,-0.02l0.28,-0.03l0.28,-0.02l0.28,-0.03l0.28,-0.03l0.28,-0.04l0.28,-0.04l0.27,-0.04l0.27,-0.05l0.27,-0.05l0.27,-0.05l0.27,-0.06l0.26,-0.06l0.27,-0.07l0.26,-0.07l0.25,-0.08l0.26,-0.08l0.25,-0.09l0.25,-0.09l0.24,-0.1l0.24,-0.11l0.24,-0.11l0.73,-0.36l0.66,-0.32l0.6,-0.28l0.54,-0.25l0.48,-0.22l0.42,-0.2l0.38,-0.17l0.33,-0.14l0.28,-0.12l0.24,-0.11l0.2,-0.09l0.16,-0.07l0.13,-0.06l0.1,-0.05l0.07,-0.03l0.04,-0.04l0.02,-0.03l0,-0.02l-0.02,-0.03l-0.03,-0.02l-0.05,-0.03l-0.05,-0.04l-0.06,-0.05l-0.06,-0.05l-0.06,-0.07l-0.06,-0.08l-0.06,-0.1l-0.04,-0.12l-0.04,-0.14l-0.02,-0.16l-0.01,-0.18l0.01,-0.22l0.04,-0.24l0.06,-0.27l0.09,-0.31l0.12,-0.34l0.15,-0.38l0.19,-0.42l0.22,-0.46l0.27,-0.51l-0.29,-0.31l-0.26,-0.28l-0.21,-0.26l-0.17,-0.24l-0.13,-0.21l-0.11,-0.19l-0.07,-0.18l-0.05,-0.15l-0.02,-0.14l0,-0.12l0.01,-0.11l0.03,-0.1l0.04,-0.08l0.05,-0.08l0.05,-0.06l0.05,-0.06l0.05,-0.05l0.05,-0.05l0.04,-0.05l0.03,-0.04l0.01,-0.04l0,-0.04l-0.03,-0.05l-0.04,-0.05l-0.08,-0.05l-0.1,-0.06l-0.14,-0.07l-0.17,-0.08l-0.21,-0.09l-0.25,-0.09l-0.3,-0.12l-0.35,-0.12l-0.4,-0.15l-0.45,-0.16l-0.51,-0.17l-0.58,-0.2l-0.63,-0.22l-0.71,-0.24l-0.77,-0.27l-0.85,-0.29l-0.33,-0.11l-0.32,-0.11l-0.31,-0.09l-0.29,-0.08l-0.28,-0.08l-0.27,-0.06l-0.25,-0.06l-0.25,-0.05l-0.23,-0.05l-0.22,-0.03l-0.21,-0.03l-0.21,-0.03l-0.2,-0.01l-0.19,-0.01l-0.18,-0.01l-0.18,0l-0.17,0l-0.17,0l-0.17,0.01l-0.16,0.02l-0.16,0.01l-0.15,0.02l-0.16,0.02l-0.16,0.02l-0.15,0.02l-0.16,0.03l-0.16,0.02l-0.17,0.02l-0.16,0.03l-0.17,0.02l-0.17,0.02l-0.18,0.02l-0.19,0.02l-0.19,0.02l-0.2,0.01l-0.2,0.01l-0.22,0.01l-0.22,0l-0.24,0l-0.24,0l4.17,-1.43l0.57,-0.07l0.55,-0.07l0.53,-0.05l0.51,-0.06l0.49,-0.04l0.47,-0.04l0.46,-0.04l0.44,-0.02l0.43,-0.02l0.41,-0.01l0.41,0l0.39,0l0.39,0.02l0.38,0.02l0.38,0.03l0.37,0.05l0.37,0.05l0.36,0.06l0.37,0.08l0.37,0.08l0.37,0.1l0.37,0.11l0.38,0.12l0.38,0.13l0.39,0.15l0.4,0.16l0.42,0.17l0.42,0.18l0.43,0.2l0.45,0.21l0.46,0.23l0.49,0.24l0.49,0.26l0.52,0.27l0.54,0.29l0.56,0.31l0.58,0.32l0.61,0.34l0.64,0.35l0.66,0.37l-3.94,-55.62l-0.02,-0.6l-0.01,-0.57l-0.01,-0.55l-0.01,-0.53l0,-0.5l0,-0.48l0.01,-0.46l0.02,-0.44l0.02,-0.43l0.03,-0.41l0.04,-0.4l0.04,-0.38l0.06,-0.37l0.06,-0.37l0.07,-0.35l0.08,-0.35l0.09,-0.34l0.11,-0.34l0.11,-0.34l0.12,-0.33l0.14,-0.34l0.15,-0.33l0.17,-0.34l0.17,-0.35l0.19,-0.35l0.21,-0.36l0.22,-0.36l0.24,-0.38l0.25,-0.39l0.27,-0.4l0.28,-0.41l0.3,-0.44l0.33,-0.45l0.33,-0.46l0.36,-0.49l0.38,-0.51l0.4,-0.53l0.41,-0.56l0.44,-0.59l0.46,-0.61l-4.1,0.05l-4.1,0.08l-4.1,0.11l-4.09,0.14l-4.1,0.18l-4.09,0.2l-4.09,0.22l-4.09,0.26l-4.08,0.28l-4.09,0.3l-4.08,0.32l-4.08,0.35l-4.08,0.36l-4.08,0.38l-4.08,0.4l-4.07,0.42l-4.07,0.43l-4.07,0.44l-4.06,0.46l-4.07,0.47l-4.06,0.48l-4.05,0.48l-4.06,0.49l-4.05,0.5l-4.05,0.51l-4.04,0.5l-4.05,0.51l-4.03,0.51l-4.04,0.51l-4.03,0.51l-4.03,0.51l-4.03,0.5l-4.02,0.5l-4.02,0.49l-4.01,0.48l-4.01,0.47l-4.01,0.47l-4,0.45l-4,0.44l-4,0.42l1.33,18.28l0.22,1.61l0.22,1.64l0.21,1.68l0.22,1.7l0.21,1.73l0.21,1.76l0.2,1.78l0.21,1.81l0.2,1.83l0.2,1.85l0.19,1.86l0.2,1.88l0.19,1.9l0.19,1.91l0.18,1.92l0.18,1.93l0.18,1.94l0.18,1.95l0.17,1.95l0.17,1.96l0.16,1.96l0.16,1.96l0.16,1.95l0.16,1.96l0.15,1.95l0.14,1.94l0.15,1.93l0.14,1.93l0.13,1.92l0.13,1.9l0.13,1.89l0.12,1.87l0.12,1.85l0.11,1.84l0.11,1.81l0.11,1.8l0.1,1.76l0.1,1.75l0.09,1.71l0.08,1.69l0.05,1l0.04,1l0.04,0.99l0.03,0.98l0.03,0.97l0.02,0.97l0.03,0.96l0.01,0.96l0.02,0.95l0.01,0.95l0.02,0.95l0.01,0.94l0.01,0.94l0,0.93l0.01,0.94l0.01,0.94l0.01,0.93l0.01,0.94l0.01,0.93l0.01,0.94l0.02,0.94l0.01,0.94l0.02,0.94l0.03,0.94l0.02,0.95l0.04,0.96l0.03,0.96l0.04,0.96l0.05,0.97l0.05,0.97l0.05,0.99l0.06,0.99l0.07,0.99l0.08,1.01l0.08,1.01l0.1,1.02l0.1,1.04l0.11,1.04l0.11,1.05l0.13,1.07l0.21,1.63l0.2,1.53l0.21,1.41l0.2,1.32l0.21,1.22l0.2,1.12l0.21,1.04l0.2,0.96l0.21,0.88l0.21,0.8l0.22,0.74l0.21,0.68l0.23,0.62l0.22,0.56l0.24,0.52l0.23,0.47l0.25,0.44l0.25,0.4l0.26,0.38l0.26,0.35l0.28,0.33l0.28,0.32l0.29,0.31l0.3,0.31l0.32,0.31l0.32,0.31l0.34,0.33l0.34,0.34l0.36,0.36l0.38,0.38l0.38,0.42l0.41,0.45l0.41,0.5l0.43,0.53l0.45,0.59l0.46,0.64l0.48,0.71l0.5,0.76l0.52,0.84l0.53,0.91l6.46,-6.58l0.82,-1.03l0.77,-0.99l0.73,-0.95l0.7,-0.92l0.65,-0.89l0.61,-0.86l0.57,-0.82l0.54,-0.8l0.51,-0.77l0.47,-0.75l0.43,-0.72l0.41,-0.7l0.37,-0.68l0.35,-0.66l0.31,-0.64l0.29,-0.63l0.27,-0.61l0.24,-0.59l0.21,-0.59l0.2,-0.57l0.17,-0.57l0.16,-0.56l0.13,-0.55l0.12,-0.55l0.1,-0.54l0.08,-0.55l0.08,-0.54l0.05,-0.55l0.05,-0.55l0.04,-0.55l0.03,-0.56l0.02,-0.57l0.01,-0.58l0.01,-0.59l0,-0.6l0,-0.61l0,-0.63l0,-0.64l-0.01,-0.67l0,-0.68l0.02,-1.18l0.06,-1.14l0.1,-1.12l0.15,-1.1l0.18,-1.06l0.22,-1.03l0.26,-1.01l0.29,-0.97l0.34,-0.94l0.37,-0.9l0.4,-0.87l0.44,-0.84l0.48,-0.8l0.51,-0.77l0.55,-0.72l0.57,-0.7l0.61,-0.65l0.65,-0.61l0.67,-0.58l0.7,-0.53l0.74,-0.49l0.76,-0.45l0.79,-0.41l0.83,-0.36l0.84,-0.32l0.88,-0.27l0.9,-0.23l0.93,-0.18l0.96,-0.13l0.98,-0.08l1,-0.04l1.03,0.01l1.05,0.07l1.07,0.11l1.1,0.17l1.12,0.22l1.13,0.28l1.16,0.32l1.18,0.39l1.2,0.44l0.86,-13.75l0.02,-0.05l0.01,-0.05l0.01,-0.05l0.01,-0.06l0.01,-0.05l0.02,-0.05l0.01,-0.06l0.01,-0.05l0.02,-0.06l0.01,-0.05l0.02,-0.06l0.01,-0.05l0.02,-0.06l0.01,-0.06l0.02,-0.05l0.01,-0.06l0.02,-0.06l0.01,-0.05l0.02,-0.06l0.02,-0.05l0.01,-0.06l0.02,-0.06l0.02,-0.05l0.01,-0.06l0.03,-0.1l0.02,-0.06l0.01,-0.05l0.02,-0.05l0.01,-0.06l0.02,-0.05l0.01,-0.05l0.02,-0.05l0.01,-0.05l0.02,-0.05l0.01,-0.05l0.01,-0.04l0.01,-0.05l0.02,-0.04l0.01,-0.05l0.01,-0.04l0.01,-0.04l0.01,-0.05l0.02,-0.04l0.01,-0.05l0.02,-0.05l0.01,-0.05l0.02,-0.05l0.02,-0.05l0.02,-0.05l0.02,-0.05l0.02,-0.06l0.02,-0.05l0.02,-0.05l0.02,-0.06l0.02,-0.05l0.02,-0.06l0.02,-0.05l0.02,-0.05l0.03,-0.06l0.02,-0.05l0.02,-0.06l0.04,-0.1l0.02,-0.06l0.02,-0.05l0.02,-0.05l0.02,-0.05l0.02,-0.05l0.02,-0.04l0.02,-0.05l0.02,-0.05l0.01,-0.04l0.02,-0.04l0.01,-0.04l0.02,-0.04l0.01,-0.04l0.01,-0.04l0.01,-0.03l0.01,-0.04l0.01,-0.03l0.01,-0.03l0.01,-0.03l0.02,-0.04l0.01,-0.04l0.01,-0.04l0.01,-0.04l0.02,-0.04l0.01,-0.04l0.02,-0.04l0.01,-0.05l0.02,-0.04l0.01,-0.05l0.02,-0.05l0.02,-0.05l0.01,-0.04l0.02,-0.05l0.02,-0.05l0.02,-0.05l0.02,-0.05l0.02,-0.05l0.02,-0.06l0.02,-0.05l0.02,-0.05l0.03,-0.05l0.02,-0.05l0.02,-0.05l0.02,-0.05l0.03,-0.05l0.02,-0.05l0.03,-0.05l0.02,-0.05l0.03,-0.05l0.02,-0.04l0.03,-0.05l0.02,-0.05l0.03,-0.04l0.03,-0.05l0.02,-0.04l0.03,-0.04l0.38,0.83l0.35,0.83l0.32,0.83l0.3,0.84l0.27,0.83l0.24,0.83l0.22,0.83l0.2,0.83l0.18,0.84l0.16,0.83l0.13,0.84l0.13,0.84l0.1,0.84l0.09,0.84l0.08,0.85l0.07,0.85l0.05,0.85l0.05,0.86l0.03,0.85l0.03,0.87l0.03,0.86l0.02,0.87l0.01,0.88l0.02,0.88l0.01,0.88l0.01,0.89l0.02,0.9l0.02,0.9l0.02,0.9l0.03,0.91l0.04,0.92l0.04,0.93l0.05,0.93l0.07,0.94l0.07,0.95l0.09,0.95l0.11,0.96l0.12,0.97l0.13,0.98l0.16,0.99l-0.02,-0.01l-0.06,0l-0.09,-0.01l-0.11,0l-0.15,-0.01l-0.17,0l-0.18,0.01l-0.21,0.01l-0.22,0.02l-0.23,0.03l-0.24,0.05l-0.24,0.06l-0.25,0.08l-0.24,0.09l-0.24,0.11l-0.23,0.14l-0.22,0.15l-0.2,0.19l-0.19,0.2l-0.17,0.24l-0.14,0.27l-0.12,0.3l-0.08,0.33l-0.06,0.37l-0.01,0.4l0.02,0.45l0.06,0.48l0.11,0.53l0.16,0.57l0.22,0.61l0.26,0.67l0.33,0.71l0.38,0.76l0.45,0.82l0.52,0.87l0.59,0.93l0.66,0.98l0.74,1.04l0.82,1.11l0.91,1.17l-10.77,0.82l-0.12,-0.98l-0.1,-0.96l-0.08,-0.94l-0.05,-0.93l-0.04,-0.9l-0.02,-0.89l-0.01,-0.86l0.01,-0.85l0.02,-0.83l0.04,-0.81l0.04,-0.79l0.05,-0.78l0.06,-0.76l0.06,-0.74l0.06,-0.73l0.07,-0.71l0.07,-0.69l0.07,-0.67l0.06,-0.66l0.07,-0.65l0.05,-0.63l0.05,-0.61l0.04,-0.6l0.03,-0.59l0.02,-0.57l0.01,-0.55l-0.01,-0.54l-0.02,-0.53l-0.04,-0.51l-0.06,-0.5l-0.08,-0.49l-0.1,-0.48l-0.13,-0.46l-0.15,-0.45l-0.17,-0.43l-0.21,-0.43l-0.23,-0.41l-0.27,-0.4l-0.29,-0.39l-0.33,-0.38l-0.77,-0.79l-0.75,-0.72l-0.74,-0.65l-0.73,-0.58l-0.72,-0.52l-0.71,-0.46l-0.7,-0.39l-0.68,-0.34l-0.68,-0.27l-0.66,-0.21l-0.65,-0.16l-0.63,-0.1l-0.62,-0.05l-0.61,0.01l-0.59,0.05l-0.58,0.11l-0.57,0.16l-0.54,0.2l-0.54,0.25l-0.51,0.3l-0.5,0.34l-0.49,0.38l-0.46,0.43l-0.45,0.46l-0.43,0.5l-0.41,0.54l-0.4,0.58l-0.37,0.61l-0.36,0.64l-0.33,0.67l-0.32,0.71l-0.29,0.73l-0.28,0.76l-0.25,0.79l-0.23,0.82l-0.21,0.83l-0.19,0.86l-0.17,0.89l-0.14,0.9l-0.12,0.92l0.64,0.25l0.59,0.21l0.54,0.17l0.5,0.13l0.46,0.11l0.42,0.07l0.39,0.04l0.36,0.02l0.33,0l0.3,-0.02l0.29,-0.04l0.26,-0.06l0.24,-0.06l0.23,-0.08l0.21,-0.08l0.21,-0.09l0.2,-0.09l0.19,-0.08l0.2,-0.09l0.2,-0.07l0.2,-0.07l0.21,-0.05l0.22,-0.04l0.23,-0.03l0.25,0l0.26,0.02l0.29,0.04l0.31,0.07l0.34,0.1l0.37,0.14l0.4,0.17l0.44,0.21l0.47,0.25l0.52,0.29l0.56,0.34l0.6,0.39l0.65,0.44l0.71,0.49l0.76,0.55l0.82,0.61l-0.03,0.62l-0.05,0.68l-0.08,0.72l-0.1,0.77l-0.12,0.81l-0.14,0.84l-0.16,0.89l-0.17,0.91l-0.2,0.95l-0.21,0.98l-0.22,1l-0.24,1.02l-0.26,1.04l-0.26,1.06l-0.28,1.07l-0.29,1.08l-0.29,1.09l-0.31,1.09l-0.31,1.1l-0.32,1.09l-0.33,1.09l-0.33,1.08l-0.33,1.07l-0.34,1.06l-0.34,1.05l-0.33,1.02l-0.34,1.01l-0.34,0.98l-0.34,0.95l-0.33,0.93l-0.33,0.89l-0.32,0.85l-0.32,0.82l-0.31,0.77l-0.3,0.73l-0.29,0.68l-0.28,0.63l-0.28,0.58l-0.26,0.53l-0.25,0.46l0.06,-0.6l0.07,-0.58l0.07,-0.55l0.07,-0.54l0.07,-0.52l0.08,-0.5l0.08,-0.49l0.08,-0.46l0.09,-0.46l0.09,-0.44l0.09,-0.42l0.1,-0.42l0.09,-0.4l0.1,-0.4l0.11,-0.38l0.1,-0.38l0.1,-0.37l0.11,-0.37l0.11,-0.36l0.11,-0.36l0.11,-0.35l0.12,-0.35l0.11,-0.36l0.12,-0.35l0.11,-0.35l0.12,-0.36l0.12,-0.36l0.12,-0.37l0.12,-0.37l0.12,-0.37l0.12,-0.39l0.12,-0.39l0.12,-0.41l0.12,-0.41l0.12,-0.42l0.12,-0.44l0.12,-0.45l0.12,-0.47l0.12,-0.48l0.11,-0.5l0.24,-1.02l0.23,-0.97l0.22,-0.9l0.21,-0.84l0.19,-0.79l0.18,-0.74l0.17,-0.68l0.16,-0.64l0.14,-0.59l0.12,-0.55l0.11,-0.5l0.1,-0.47l0.07,-0.43l0.06,-0.39l0.04,-0.37l0.03,-0.33l0,-0.3l-0.02,-0.28l-0.04,-0.26l-0.06,-0.23l-0.08,-0.22l-0.1,-0.2l-0.13,-0.19l-0.15,-0.17l-0.18,-0.16l-0.2,-0.16l-0.23,-0.15l-0.25,-0.15l-0.28,-0.15l-0.31,-0.15l-0.34,-0.16l-0.36,-0.16l-0.4,-0.17l-0.42,-0.18l-0.46,-0.2l-0.49,-0.21l-0.52,-0.23l-0.55,-0.24l-0.59,-0.28l-0.62,-0.29l-0.37,0.1l-0.41,0.22l-0.43,0.32l-0.46,0.42l-0.49,0.51l-0.51,0.61l-0.53,0.69l-0.56,0.78l-0.57,0.84l-0.6,0.92l-0.62,0.98l-0.63,1.04l-0.65,1.09l-0.66,1.15l-0.68,1.18l-0.69,1.23l-0.71,1.25l-0.71,1.29l-0.72,1.31l-0.74,1.32l-0.73,1.34l-0.75,1.34l-0.75,1.35l-0.75,1.34l-0.75,1.33l-0.76,1.32l-0.75,1.3l-0.76,1.28l-0.75,1.25l-0.75,1.21l-0.74,1.17l-0.74,1.13l-0.73,1.07l-0.72,1.02l-0.71,0.96l-0.7,0.9l-0.69,0.82l-0.68,0.74l-0.66,0.67l-0.65,0.57l-0.5,-0.11l-0.47,-0.13l-0.45,-0.13l-0.41,-0.14l-0.39,-0.15l-0.36,-0.16l-0.34,-0.17l-0.32,-0.17l-0.29,-0.19l-0.28,-0.19l-0.27,-0.2l-0.24,-0.21l-0.24,-0.22l-0.22,-0.22l-0.21,-0.23l-0.2,-0.25l-0.2,-0.24l-0.19,-0.26l-0.18,-0.27l-0.19,-0.27l-0.18,-0.28l-0.19,-0.28l-0.18,-0.3l-0.2,-0.3l-0.19,-0.31l-0.21,-0.32l-0.22,-0.32l-0.22,-0.33l-0.24,-0.34l-0.26,-0.35l-0.26,-0.35l-0.29,-0.36l-0.31,-0.37l-0.32,-0.37l-0.35,-0.38l-0.38,-0.38l-0.4,-0.4l-0.42,-0.4l-0.46,-0.4l-0.49,-0.42l-0.26,0.63l-0.25,0.58l-0.22,0.54l-0.2,0.5l-0.18,0.47l-0.16,0.43l-0.15,0.4l-0.14,0.37l-0.12,0.35l-0.11,0.31l-0.1,0.29l-0.1,0.27l-0.09,0.24l-0.08,0.23l-0.08,0.21l-0.08,0.19l-0.08,0.18l-0.08,0.17l-0.09,0.16l-0.09,0.15l-0.09,0.14l-0.11,0.14l-0.12,0.14l-0.12,0.14l-0.14,0.14l-0.16,0.14l-0.17,0.14l-0.19,0.16l-0.21,0.16l-0.23,0.17l-0.25,0.18l-0.28,0.2l-0.3,0.22l-0.33,0.23l-0.36,0.26l-0.39,0.27l-0.42,0.3l-0.46,0.32l-0.49,0.36l-0.53,0.38l-4.73,-9.83l-0.42,0.28l-0.4,0.26l-0.37,0.26l-0.36,0.25l-0.34,0.24l-0.32,0.23l-0.31,0.22l-0.29,0.21l-0.28,0.21l-0.27,0.21l-0.26,0.19l-0.24,0.19l-0.24,0.19l-0.24,0.18l-0.22,0.18l-0.23,0.18l-0.21,0.17l-0.22,0.18l-0.22,0.17l-0.21,0.17l-0.22,0.17l-0.22,0.17l-0.23,0.17l-0.23,0.17l-0.23,0.17l-0.25,0.18l-0.25,0.18l-0.26,0.18l-0.28,0.19l-0.29,0.19l-0.3,0.19l-0.31,0.21l-0.34,0.2l-0.35,0.22l-0.37,0.22l-0.39,0.23l-0.41,0.23l-0.43,0.25l-0.46,0.25l-0.48,0.27l-0.03,-0.04l-0.04,-0.04l-0.04,-0.04l-0.03,-0.04l-0.04,-0.05l-0.04,-0.05l-0.03,-0.06l-0.04,-0.05l-0.04,-0.06l-0.03,-0.06l-0.04,-0.06l-0.04,-0.06l-0.03,-0.06l-0.04,-0.06l-0.04,-0.06l-0.03,-0.06l-0.04,-0.07l-0.03,-0.06l-0.04,-0.05l-0.03,-0.06l-0.04,-0.06l-0.03,-0.05l-0.03,-0.05l-0.03,-0.05l-0.03,-0.05l-0.04,-0.04l-0.02,-0.04l-0.03,-0.04l-0.03,-0.03l-0.03,-0.03l-0.02,-0.02l-0.03,-0.02l-0.02,-0.02l-0.02,0l-0.02,-0.01l-0.02,0.01l-0.02,0l-0.02,0.02l-0.02,0.02l-0.01,0.03l-0.04,0.08l-0.04,0.07l-0.05,0.05l-0.05,0.03l-0.05,0.02l-0.06,0l-0.06,-0.01l-0.05,-0.02l-0.07,-0.04l-0.06,-0.05l-0.06,-0.06l-0.07,-0.07l-0.07,-0.07l-0.07,-0.09l-0.07,-0.1l-0.07,-0.1l-0.07,-0.11l-0.08,-0.11l-0.07,-0.12l-0.07,-0.12l-0.08,-0.13l-0.07,-0.13l-0.08,-0.14l-0.07,-0.13l-0.07,-0.14l-0.08,-0.13l-0.07,-0.14l-0.07,-0.13l-0.07,-0.13l-0.07,-0.13l-0.06,-0.12l-0.07,-0.13l-0.06,-0.11l-0.07,-0.11l-0.06,-0.1l-0.06,-0.1l-0.05,-0.09l-0.05,-0.08l-0.06,-0.07l-0.04,-0.06l-0.03,-0.03l-0.03,-0.04l-0.03,-0.03l-0.02,-0.04l-0.03,-0.03l-0.04,-0.04l-0.03,-0.04l-0.03,-0.04l-0.03,-0.04l-0.03,-0.04l-0.04,-0.04l-0.03,-0.04l-0.04,-0.05l-0.03,-0.04l-0.04,-0.04l-0.03,-0.05l-0.11,-0.13l-0.07,-0.09l-0.04,-0.05l-0.04,-0.04l-0.03,-0.05l-0.04,-0.04l-0.04,-0.05l-0.03,-0.04l-0.04,-0.05l-0.03,-0.04l-0.04,-0.04l-0.03,-0.04l-0.04,-0.05l-0.03,-0.04l-0.03,-0.04l-0.03,-0.04l-0.04,-0.04l-0.03,-0.03l-0.03,-0.04l-0.03,-0.03l-0.03,-0.04l-0.03,-0.03l-0.03,-0.04l-0.03,-0.04l-0.03,-0.03l-0.03,-0.04l-0.04,-0.04l-0.03,-0.04l-0.04,-0.04l-0.07,-0.09l-0.04,-0.04l-0.07,-0.09l-0.04,-0.04l-0.04,-0.05l-0.04,-0.04l-0.03,-0.05l-0.08,-0.09l-0.08,-0.09l-0.08,-0.09l-0.07,-0.09l-0.08,-0.09l-0.11,-0.12l-0.11,-0.13l-0.21,-0.25l-3.03,-3.37l-0.6,1.03l-0.65,1.15l-0.7,1.29l-0.73,1.41l-0.78,1.52l-0.81,1.63l-0.85,1.74l-0.88,1.83l-0.91,1.92l-0.93,2l-0.95,2.07l-0.97,2.15l-0.99,2.2l-1.01,2.26l-1.01,2.31l-1.02,2.35l-1.03,2.39l-1.03,2.41l-1.03,2.43l-1.02,2.45l-1.02,2.46l-1.01,2.46l-0.99,2.45l-0.98,2.44l-0.97,2.42l-0.94,2.39l-0.91,2.36l-0.89,2.32l-0.86,2.28l-0.83,2.22l-0.79,2.17l-0.76,2.09l-0.71,2.03l-0.67,1.94l-0.62,1.86l-0.57,1.76l-0.51,1.67l-0.46,1.56l-0.41,1.44l-0.34,1.32l-5.83,0l0.26,-0.96l0.35,-1.17l0.41,-1.36l0.5,-1.53l0.56,-1.7l0.64,-1.86l0.69,-1.99l0.76,-2.13l0.81,-2.26l0.87,-2.36l0.92,-2.46l0.96,-2.55l1.01,-2.62l1.05,-2.69l1.08,-2.74l1.12,-2.79l1.15,-2.82l1.17,-2.84l1.19,-2.84l1.22,-2.85l1.23,-2.83l1.24,-2.81l1.25,-2.77l1.25,-2.72l1.26,-2.67l1.25,-2.6l1.25,-2.52l1.25,-2.42l1.22,-2.32l1.22,-2.21l1.19,-2.08l1.17,-1.95l1.15,-1.8l1.12,-1.64l1.08,-1.47l1.05,-1.29l1,-1.09l0.97,-0.89l0.91,-0.68l0.87,-0.45l1.14,-0.44l1.03,-0.37l0.94,-0.31l0.85,-0.25l0.76,-0.19l0.69,-0.14l0.6,-0.09l0.54,-0.04l0.46,0.01l0.41,0.05l0.36,0.08l0.3,0.12l0.27,0.16l0.22,0.18l0.19,0.21l0.16,0.24l0.13,0.25l0.12,0.27l0.11,0.28l0.1,0.3l0.1,0.3l0.1,0.31l0.1,0.32l0.13,0.31l0.14,0.3l0.16,0.3l0.2,0.29l0.23,0.27l0.27,0.26l0.31,0.24l0.37,0.21l0.42,0.19l0.48,0.17l0.55,0.13l0.62,0.09l0.7,0.06l0.78,0.01l0.86,-0.02l0.96,-0.08l1.06,-0.12l0.02,-0.01l0.04,-0.01l0.05,-0.02l0.06,-0.02l0.08,-0.03l0.09,-0.04l0.1,-0.04l0.11,-0.05l0.13,-0.05l0.14,-0.05l0.15,-0.06l0.16,-0.06l0.17,-0.07l0.18,-0.07l0.19,-0.07l0.2,-0.07l0.21,-0.08l0.23,-0.08l0.23,-0.08l0.24,-0.08l0.24,-0.08l0.26,-0.09l0.26,-0.08l0.27,-0.09l0.28,-0.08l0.29,-0.09l0.29,-0.08l0.3,-0.09l0.31,-0.08l0.31,-0.08l0.32,-0.08l0.32,-0.08l0.33,-0.08l0.33,-0.07l0.34,-0.08l0.34,-0.07l0.35,-0.06l0.35,-0.06l0.36,-0.06l0.35,-0.06l-2.49,-32.25l-0.28,-0.18l-0.26,-0.15l-0.23,-0.15l-0.21,-0.12l-0.18,-0.11l-0.16,-0.1l-0.14,-0.08l-0.12,-0.08l-0.1,-0.05l-0.08,-0.05l-0.08,-0.04l-0.06,-0.03l-0.05,-0.02l-0.04,-0.01l-0.03,0l-0.03,0l-0.03,0.01l-0.02,0.01l-0.02,0.02l-0.03,0.02l-0.02,0.02l-0.03,0.03l-0.04,0.02l-0.05,0.03l-0.05,0.03l-0.07,0.02l-0.07,0.02l-0.1,0.02l-0.11,0.02l-0.13,0.01l-0.14,0.01l-0.17,0l-0.19,0l-0.22,-0.02l-0.24,-0.02l-0.27,-0.03l-0.3,-0.04l-0.33,-0.05l-0.37,-0.06l-0.4,-0.07l-6.76,-1.41l0.7,-0.29l0.65,-0.26l0.62,-0.23l0.58,-0.21l0.53,-0.19l0.51,-0.17l0.46,-0.15l0.44,-0.14l0.4,-0.12l0.38,-0.11l0.34,-0.1l0.33,-0.09l0.29,-0.08l0.28,-0.08l0.26,-0.08l0.23,-0.08l0.23,-0.08l0.2,-0.08l0.2,-0.09l0.18,-0.09l0.17,-0.1l0.17,-0.11l0.16,-0.13l0.15,-0.14l0.16,-0.15l0.15,-0.17l0.15,-0.2l0.16,-0.21l0.16,-0.24l0.17,-0.27l0.18,-0.29l0.18,-0.32l0.2,-0.35l0.21,-0.39l0.23,-0.42l0.25,-0.46l0.26,-0.49l0.29,-0.54l0.31,-0.58l0.33,-0.62l-13.34,-5.74l0.12,-0.94l0.11,-1.05l0.11,-1.15l0.1,-1.26l0.1,-1.34l0.09,-1.44l0.09,-1.52l0.08,-1.6l0.07,-1.66l0.07,-1.73l0.05,-1.8l0.06,-1.84l0.04,-1.9l0.03,-1.93l0.03,-1.98l0.01,-2l0.01,-2.03l-0.01,-2.05l-0.01,-2.06l-0.03,-2.07l-0.04,-2.07l-0.05,-2.07l-0.06,-2.07l-0.08,-2.04l-0.09,-2.03l-0.1,-2l-0.12,-1.96l-0.13,-1.93l-0.14,-1.89l-0.16,-1.84l-0.18,-1.78l-0.2,-1.72l-0.21,-1.66l-0.22,-1.58l-0.25,-1.51l-0.26,-1.42l-0.28,-1.34l-0.3,-1.24l-0.32,-1.13l-0.34,-1.04l-0.49,-1.2l-0.57,-1.11l-0.66,-1.02l-0.74,-0.94l-0.82,-0.85l-0.89,-0.79l-0.96,-0.71l-1.03,-0.65l-1.1,-0.59l-1.16,-0.54l-1.22,-0.49l-1.28,-0.44l-1.33,-0.4l-1.38,-0.37l-1.44,-0.35l-1.47,-0.31l-1.52,-0.3l-1.56,-0.28l-1.6,-0.28l-1.63,-0.27l-1.67,-0.27l-1.69,-0.27l-1.72,-0.29l-1.74,-0.31l-1.76,-0.32l-1.78,-0.35l-1.79,-0.38l-1.8,-0.42l-1.81,-0.45l-1.82,-0.51l-1.82,-0.55l-1.82,-0.61l-1.82,-0.67l-1.81,-0.73l-1.8,-0.81l-1.79,-0.88l-1.78,-0.97l-1.76,-1.05l-1.74,-1.14l-1.71,-1.23l0.86,-0.99l0.95,-0.95l1.01,-0.92l1.09,-0.89l1.15,-0.87l1.22,-0.84l1.27,-0.81l1.33,-0.79l1.38,-0.77l1.42,-0.74l1.47,-0.73l1.52,-0.71l1.55,-0.69l1.58,-0.68l1.61,-0.67l1.64,-0.65l1.67,-0.64l1.68,-0.63l1.7,-0.63l1.71,-0.62l1.72,-0.61l1.72,-0.61l1.73,-0.61l1.72,-0.61l1.72,-0.61l1.71,-0.61l1.69,-0.62l1.68,-0.62l1.66,-0.63l1.64,-0.63l1.61,-0.65l1.58,-0.66l1.54,-0.66l1.51,-0.69l1.46,-0.7l1.42,-0.71l1.38,-0.74l1.32,-0.75l1.26,-0.78l1.21,-0.79l-0.82,-0.35l-0.93,-0.41l-1.03,-0.47l-1.13,-0.53l-1.22,-0.58l-1.31,-0.63l-1.39,-0.67l-1.46,-0.73l-1.53,-0.76l-1.59,-0.81l-1.65,-0.84l-1.71,-0.87l-1.74,-0.91l-1.79,-0.93l-1.82,-0.96l-1.85,-0.99l-1.87,-1l-1.88,-1.02l-1.9,-1.03l-1.9,-1.05l-1.9,-1.05l-1.89,-1.06l-1.88,-1.06l-1.86,-1.06l-1.84,-1.06l-1.81,-1.06l-1.77,-1.04l-1.73,-1.04l-1.68,-1.02l-1.63,-1l-1.57,-0.98l-1.5,-0.97l-1.44,-0.93l-1.35,-0.91l-1.28,-0.88l-1.18,-0.85l-1.1,-0.8l-0.99,-0.77l-0.89,-0.73l-0.77,-0.68l-0.39,-0.36l-0.37,-0.33l-0.35,-0.3l-0.32,-0.27l-0.31,-0.24l-0.28,-0.23l-0.26,-0.2l-0.24,-0.18l-0.23,-0.16l-0.2,-0.15l-0.2,-0.14l-0.17,-0.12l-0.17,-0.11l-0.15,-0.11l-0.14,-0.1l-0.13,-0.1l-0.12,-0.09l-0.1,-0.09l-0.11,-0.1l-0.09,-0.1l-0.09,-0.1l-0.08,-0.11l-0.08,-0.12l-0.08,-0.13l-0.07,-0.15l-0.07,-0.16l-0.08,-0.17l-0.07,-0.2l-0.07,-0.21l-0.08,-0.24l-0.08,-0.27l-0.09,-0.29l-0.09,-0.31l-0.1,-0.35l-0.11,-0.38l-0.11,-0.42l-0.13,-0.45l-0.13,-0.49l-0.15,-0.53l-0.16,-0.57l2.94,-0.7l3,-0.68l3.06,-0.63l3.13,-0.61l3.18,-0.58l3.24,-0.54l3.29,-0.52l3.34,-0.48l3.38,-0.46l3.43,-0.44l3.46,-0.41l3.51,-0.39l3.53,-0.37l3.57,-0.35l3.59,-0.33l3.61,-0.31l3.64,-0.3l3.65,-0.28l3.67,-0.26l3.68,-0.25l3.69,-0.25l3.69,-0.23l3.7,-0.22l3.69,-0.21l3.69,-0.21l3.68,-0.2l3.68,-0.2l3.66,-0.2l3.64,-0.19l3.62,-0.19l3.61,-0.2l3.57,-0.19l3.55,-0.2l3.51,-0.2l3.48,-0.21l3.45,-0.22l3.4,-0.22l3.35,-0.24l3.31,-0.24l3.26,-0.26l-0.13,-0.67l-0.24,-0.71l-0.34,-0.74l-0.44,-0.77l-0.53,-0.81l-0.62,-0.84l-0.7,-0.87l-0.78,-0.89l-0.84,-0.93l-0.91,-0.95l-0.97,-0.98l-1.02,-1l-1.08,-1.03l-1.11,-1.05l-1.15,-1.07l-1.18,-1.09l-1.21,-1.1l-1.22,-1.13l-1.25,-1.14l-1.25,-1.16l-1.25,-1.18l-1.25,-1.19l-1.25,-1.2l-1.23,-1.21l-1.21,-1.22l-1.19,-1.23l-1.16,-1.24l-1.13,-1.25l-1.08,-1.25l-1.04,-1.26l-0.98,-1.26l-0.93,-1.26l-0.86,-1.27l-0.8,-1.26l-0.72,-1.27l-0.64,-1.26l-0.56,-1.26l-0.47,-1.26l-0.37,-1.25l-0.26,-1.25l2.07,-0.96l2.45,-0.64l2.78,-0.32l3.12,-0.03l3.41,0.26l3.71,0.52zm24.68,294.74l1.34,1.17l1.22,1l1.12,0.86l1.03,0.74l0.95,0.66l0.9,0.61l0.86,0.57l0.83,0.57l0.82,0.59l0.83,0.63l0.84,0.72l0.88,0.82l0.92,0.94l0.99,1.11l1.06,1.29l1.16,1.5l-2.41,0.67l-2.22,0.47l-2.04,0.27l-1.88,0.08l-1.74,-0.11l-1.61,-0.29l-1.49,-0.46l-1.4,-0.62l-1.32,-0.78l-1.25,-0.94l-1.2,-1.08l-1.18,-1.21l-1.15,-1.35l-1.16,-1.47l-1.17,-1.58l-1.2,-1.7l-1.26,-1.8l0.51,-0.56l0.55,-0.59l0.58,-0.62l0.63,-0.66l0.67,-0.7l0.71,-0.73l0.75,-0.77l0.78,-0.8l0.83,-0.83l0.87,-0.88l0.91,-0.9l0.95,-0.95l0.99,-0.97l1.03,-1.02l1.07,-1.05l1.11,-1.08l1.15,-1.12l-5.62,10.99l1.46,1.36zm27.13,-49.12l-2.02,0.36l-1.85,0.35l-1.72,0.25l-1.58,0.09l-1.49,-0.13l-1.39,-0.43l-1.34,-0.79l-1.28,-1.22l-1.27,-1.73l2.32,-1.64l1.73,-1l1.29,-0.55l1.01,-0.29l0.88,-0.21l0.92,-0.31l1.1,-0.62l1.44,-1.1l1.93,-1.76l2.59,-2.62l0.1,-0.12l0.13,-0.15l0.13,-0.16l0.14,-0.18l0.15,-0.2l0.16,-0.19l0.16,-0.2l0.16,-0.2l0.16,-0.18l0.16,-0.17l-0.51,14.78l-2.21,0.32zm80.66,-33.74l0.34,0.45l0.36,0.54l0.71,0.53l-5.29,3.27l-3.98,1.62l-2.86,0.37l-1.94,-0.46l-1.21,-0.88l-0.67,-0.88l-0.32,-0.47l1.68,-1.09l0.47,-0.6l-0.13,-0.28l-0.1,-0.15l0.54,-0.2l1.8,-0.42l3.68,-0.82l3.17,-0.65l2.01,-0.25l1.15,0.07l0.59,0.3zm-143.37,-31.6l1.36,-0.2l1.35,-0.2l1.34,-0.21l1.34,-0.2l1.33,-0.19l1.33,-0.19l1.31,-0.18l1.31,-0.18l1.3,-0.16l1.28,-0.14l1.28,-0.14l1.26,-0.11l1.26,-0.1l1.23,-0.08l1.23,-0.06l1.21,-0.03l1.19,-0.01l1.18,0.02l1.16,0.05l1.15,0.08l1.13,0.11l1.1,0.14l1.09,0.18l1.07,0.22l1.05,0.25l1.03,0.3l1,0.34l0.99,0.38l0.96,0.43l0.93,0.47l0.91,0.53l0.89,0.58l0.85,0.63l0.84,0.68l0.8,0.74l0.78,0.8l0.74,0.86l0.72,0.91l0.69,0.99l-0.2,0.66l-0.17,0.61l-0.14,0.56l-0.12,0.52l-0.1,0.47l-0.08,0.43l-0.06,0.4l-0.05,0.35l-0.03,0.33l-0.02,0.29l-0.02,0.26l-0.01,0.23l-0.01,0.22l0,0.18l-0.01,0.17l-0.01,0.15l-0.01,0.14l-0.02,0.12l-0.04,0.11l-0.04,0.11l-0.06,0.09l-0.07,0.1l-0.09,0.09l-0.12,0.09l-0.14,0.1l-0.16,0.1l-0.19,0.12l-0.22,0.12l-0.25,0.13l-0.29,0.15l-0.32,0.17l-0.36,0.18l-0.4,0.21l-0.45,0.24l-0.49,0.26l-0.54,0.29l-0.59,0.32l-0.64,0.35l-0.69,0.39l-0.76,0.43l-1.15,0.64l-1.17,0.62l-1.2,0.59l-1.22,0.56l-1.23,0.53l-1.26,0.51l-1.27,0.49l-1.29,0.45l-1.3,0.44l-1.32,0.4l-1.33,0.39l-1.34,0.35l-1.35,0.34l-1.36,0.3l-1.37,0.29l-1.38,0.26l-1.38,0.24l-1.39,0.21l-1.4,0.19l-1.39,0.17l-1.4,0.14l-1.4,0.13l-1.4,0.1l-1.4,0.08l-1.4,0.05l-1.39,0.04l-1.39,0.01l-1.38,0l-1.38,-0.03l-1.37,-0.05l-1.36,-0.07l-1.35,-0.09l-1.33,-0.11l-1.33,-0.13l-1.32,-0.14l-1.3,-0.17l-1.28,-0.19l-1.27,-0.2l-1.25,-0.23l-1.23,-0.24l0.61,-17.89l0.98,-0.2l0.91,-0.18l0.83,-0.16l0.76,-0.15l0.68,-0.12l0.62,-0.11l0.56,-0.1l0.49,-0.07l0.44,-0.06l0.39,-0.05l0.33,-0.03l0.28,-0.01l0.24,-0.01l0.19,0.01l0.16,0.03l0.12,0.03l0.08,0.05l0.06,0.05l0.03,0.07l0,0.08l-0.01,0.08l-0.04,0.1l-0.05,0.1l-0.06,0.12l-0.07,0.12l-0.07,0.12l-0.08,0.13l-0.08,0.14l-0.07,0.15l-0.07,0.14l-0.05,0.16l-0.05,0.15l-0.02,0.16l-0.01,0.16l0.01,0.17l0.04,0.16l0.07,0.17l0.09,0.17l0.14,0.17l0.16,0.16l-0.42,0.81l-0.37,0.76l-0.33,0.72l-0.27,0.68l-0.23,0.65l-0.18,0.6l-0.14,0.58l-0.09,0.53l-0.05,0.5l0,0.48l0.04,0.44l0.07,0.41l0.12,0.38l0.16,0.35l0.19,0.33l0.23,0.31l0.27,0.28l0.3,0.26l0.33,0.24l0.37,0.22l0.39,0.2l0.43,0.18l0.46,0.17l0.48,0.16l0.52,0.14l0.54,0.12l0.56,0.12l0.59,0.11l0.61,0.1l0.63,0.09l0.66,0.09l0.67,0.08l0.7,0.08l0.71,0.08l0.73,0.08l0.74,0.08l0.76,0.08l0.77,0.08l0.79,0.08l0.8,0.1l-1.55,-18.69l-7.36,3.42l-0.17,-0.74l-0.16,-0.73l-0.17,-0.71l-0.16,-0.69l-0.16,-0.68l-0.16,-0.66l-0.15,-0.65l-0.14,-0.63l-0.14,-0.62l-0.14,-0.61l-0.12,-0.6l-0.11,-0.58l-0.11,-0.57l-0.09,-0.56l-0.09,-0.55l-0.07,-0.55l-0.05,-0.53l-0.04,-0.53l-0.03,-0.51l-0.01,-0.51l0,-0.51l0.03,-0.49l0.04,-0.5l0.06,-0.48l0.08,-0.48l0.1,-0.48l0.13,-0.48l0.15,-0.47l0.17,-0.47l0.19,-0.47l0.22,-0.47l0.25,-0.47l0.28,-0.47l0.3,-0.47l0.33,-0.47l0.36,-0.47l0.39,-0.48l0.43,-0.47l0.45,-0.49l0.49,-0.48l2.32,17.08l1.36,-0.21zm69.38,21.25l0.74,0.88l0.37,1.18l1.12,1.73l-6.92,-1.18l-2.19,-0.56l0.34,-0.54l0.67,-1.1l-1.19,-2.27l4.84,1.03l2.22,0.83zm-54.44,-19.89l-3.16,0.19l-3.43,0.19l2.64,17.4l25.66,-4.63l-0.69,-2.88l-0.82,-2.45l-0.95,-2.05l-1.09,-1.69l-1.24,-1.35l-1.42,-1.06l-1.58,-0.78l-1.78,-0.55l-1.98,-0.35l-2.19,-0.17l-2.42,-0.04l-2.65,0.07l-2.9,0.15zm60.95,-2.53l0.14,0.68l0.13,0.61l0.11,0.57l0.11,0.51l0.09,0.47l0.08,0.41l0.07,0.38l0.06,0.33l0.05,0.3l0.05,0.25l0.04,0.23l0.03,0.19l0.03,0.17l0.02,0.13l0.02,0.12l0.02,0.09l0.02,0.08l0.01,0.05l0.02,0.05l0.02,0.03l0.02,0.03l0.02,0.01l0.02,0.02l0.03,0.01l0.04,0.01l0.04,0.02l0.05,0.03l0.05,0.03l0.07,0.04l0.07,0.06l0.09,0.07l0.09,0.1l0.11,0.11l0.12,0.14l0.13,0.16l0.15,0.19l0.17,0.22l0.18,0.26l0.19,0.29l18.6,3.27l-0.01,-16.48l-21.51,5.03l0.16,0.73zm-57.84,-59.67l0.57,0.06l0.55,0.08l0.54,0.1l0.52,0.12l0.52,0.14l0.52,0.16l0.52,0.18l0.53,0.2l0.54,0.21l0.55,0.24l0.58,0.25l0.6,0.27l0.63,0.29l0.66,0.31l0.7,0.32l0.74,0.34l1.65,0.73l1.42,0.63l1.22,0.53l1.02,0.45l0.84,0.36l0.68,0.3l0.53,0.23l0.4,0.19l0.28,0.14l0.17,0.11l0.09,0.09l0.02,0.07l-0.05,0.07l-0.09,0.08l-0.11,0.09l-0.13,0.11l-0.13,0.15l-0.11,0.19l-0.08,0.24l-0.04,0.31l0.03,0.37l0.11,0.46l0.2,0.54l0.3,0.65l0.43,0.75l0.56,0.87l0.72,1l4.58,3.85l-1.28,0.81l-1.15,0.78l-1.01,0.74l-0.91,0.72l-0.8,0.69l-0.72,0.65l-0.63,0.62l-0.58,0.6l-0.52,0.56l-0.48,0.53l-0.46,0.5l-0.44,0.47l-0.44,0.45l-0.46,0.41l-0.47,0.39l-0.51,0.35l-0.56,0.33l-0.62,0.3l-0.69,0.28l-0.77,0.24l-0.87,0.22l-0.99,0.19l-1.1,0.17l-1.24,0.13l-1.39,0.11l-1.55,0.09l-1.71,0.06l-33.06,-3.09l-0.29,-0.85l-0.27,-0.73l-0.26,-0.63l-0.23,-0.54l-0.22,-0.44l-0.19,-0.37l-0.16,-0.3l-0.14,-0.23l-0.11,-0.18l-0.09,-0.13l-0.05,-0.09l-0.03,-0.06l0.01,-0.04l0.04,-0.03l0.07,-0.02l0.12,-0.02l0.14,-0.03l0.19,-0.05l0.23,-0.08l0.27,-0.12l0.31,-0.16l0.36,-0.21l0.4,-0.27l0.45,-0.34l0.49,-0.42l0.55,-0.5l0.59,-0.59l0.42,-0.29l0.35,-0.35l0.29,-0.4l0.25,-0.46l0.21,-0.51l0.2,-0.55l0.18,-0.59l0.18,-0.62l0.2,-0.66l0.22,-0.69l0.25,-0.7l0.3,-0.73l0.35,-0.74l0.43,-0.75l0.5,-0.76l0.59,-0.76l0.7,-0.75l0.81,-0.75l0.93,-0.74l1.07,-0.72l1.21,-0.71l1.37,-0.68l1.54,-0.65l1.72,-0.62l1.92,-0.59l2.11,-0.54l2.33,-0.5l1.08,-0.2l1,-0.18l0.95,-0.15l0.88,-0.13l0.83,-0.1l0.78,-0.08l0.74,-0.06l0.69,-0.03l0.65,-0.01l0.63,0.01l0.59,0.04zm81.66,-9.54l0.07,0.12l0.07,0.14l0.07,0.13l0.08,0.13l0.07,0.14l0.07,0.13l0.07,0.13l0.06,0.13l0.07,0.12l0.06,0.11l0.06,0.11l0.05,0.1l0.05,0.1l0.04,0.08l6.39,10.64l-0.38,3.89l0.57,0.25l0.54,0.17l0.51,0.08l0.49,0.02l0.46,-0.04l0.42,-0.1l0.4,-0.13l0.36,-0.16l0.33,-0.19l0.29,-0.19l0.25,-0.19l0.21,-0.18l0.17,-0.16l0.13,-0.13l0.09,-0.09l0.04,-0.04l0,0.03l-0.06,0.09l-0.1,0.18l-0.15,0.27l-0.2,0.37l-0.26,0.48l-0.31,0.6l-0.37,0.73l-0.43,0.88l-0.49,1.03l-0.54,1.19l-0.43,0.85l-0.48,0.75l-0.52,0.67l-0.56,0.58l-0.6,0.51l-0.63,0.43l-0.68,0.36l-0.7,0.29l-0.73,0.24l-0.76,0.17l-0.78,0.13l-0.81,0.08l-0.82,0.04l-0.84,0.01l-0.86,-0.03l-0.87,-0.06l-0.88,-0.08l-0.89,-0.09l-0.89,-0.11l-0.9,-0.11l-0.9,-0.12l-0.89,-0.12l-0.89,-0.11l-0.89,-0.1l-0.88,-0.08l-0.86,-0.07l-0.86,-0.04l-1.28,-0.02l-1.25,-0.01l-1.22,0l-1.2,0.03l-1.17,0.04l-1.14,0.06l-1.13,0.08l-1.11,0.09l-1.08,0.11l-1.07,0.13l-1.06,0.14l-1.04,0.16l-1.03,0.18l-1.01,0.2l-1.01,0.22l-1,0.23l-1,0.25l-0.99,0.26l-0.98,0.29l-0.99,0.3l-0.98,0.32l-0.99,0.33l-0.99,0.36l-0.99,0.37l-1.01,0.39l-1.01,0.41l-1.01,0.42l-0.17,-0.39l-0.12,-0.35l-0.09,-0.3l-0.05,-0.27l-0.03,-0.23l0.01,-0.21l0.03,-0.18l0.06,-0.15l0.08,-0.14l0.1,-0.12l0.12,-0.11l0.13,-0.1l0.15,-0.09l0.15,-0.1l0.16,-0.09l0.17,-0.1l0.17,-0.11l0.17,-0.12l0.17,-0.13l0.16,-0.16l0.16,-0.18l0.15,-0.2l0.14,-0.23l0.12,-0.27l0.11,-0.31l0.09,-0.34l0.07,-0.39l0.01,-0.11l0.03,-0.09l0.03,-0.1l0.03,-0.09l0.04,-0.08l0.05,-0.08l0.05,-0.08l0.05,-0.07l0.06,-0.07l0.06,-0.07l0.07,-0.07l0.07,-0.07l0.07,-0.06l0.08,-0.07l0.08,-0.07l0.08,-0.07l0.08,-0.07l0.09,-0.08l0.09,-0.08l0.09,-0.08l0.1,-0.08l0.09,-0.1l0.1,-0.09l0.09,-0.1l0.1,-0.11l0.1,-0.12l0.1,-0.12l-4.41,-2.8l3.56,-6.61l0.45,-0.78l0.42,-0.72l0.4,-0.66l0.36,-0.59l0.35,-0.53l0.33,-0.47l0.31,-0.42l0.3,-0.37l0.29,-0.32l0.3,-0.28l0.29,-0.24l0.29,-0.2l0.31,-0.16l0.31,-0.13l0.33,-0.11l0.35,-0.07l0.37,-0.06l0.4,-0.03l0.43,-0.02l0.46,-0.01l0.49,0l0.54,0.01l0.59,0.02l0.63,0.01l0.68,0.02l0.74,0.01l0.8,0l0.01,1.02l0.08,0.49l-0.09,-1.51l1.41,-1.2l1.4,-1.04l1.41,-0.9l1.41,-0.76l1.43,-0.64l1.46,-0.54l1.47,-0.44l1.51,-0.37l1.55,-0.29l1.59,-0.24l1.64,-0.2l1.69,-0.16l1.75,-0.15l1.81,-0.14l1.89,-0.15l1.96,-0.17l0.07,0.12l0.07,0.13zm-13.05,14.71l0.37,0l-1.37,-0.01l0.07,0l0.93,0.01zm0.89,0l0.84,-0.02l0.14,-0.01l-1.24,0.03l0.26,0zm-2.04,-0.02l-1.37,-0.07l0.64,0.04l0.73,0.03zm3.67,-0.04l0.64,-0.03l-1.08,0.05l0.44,-0.02zm0.73,-0.04l0.65,-0.04l0.3,-0.02l-0.98,0.06l0.03,0zm-6.1,-0.02l0.13,0.01l-1.43,-0.16l0.33,0.05l0.97,0.1zm16.84,-0.04l0,0l0.02,0l-0.02,0zm-9.53,-0.02l0.15,-0.02l-0.18,0.02l0.03,0zm9.29,-0.02l-0.01,0l0.02,0.01l-0.01,-0.01zm-0.13,-0.01l-0.03,-0.01l0.04,0.01l-0.01,0zm-0.12,-0.02l0.08,0.01l0,0l-0.08,-0.01zm-8.53,0.01l0.12,-0.01l-0.03,0l-0.09,0.01zm8.52,-0.01l-0.01,0l0.01,0l0,0zm-7.79,-0.03l0.1,0l-0.25,0l0.15,0zm0.18,-0.01l0.2,0l0.06,0l-0.3,0.01l0.04,-0.01zm7.36,0l-0.03,0l0.01,0l0.02,0zm-7.04,0l0.1,-0.01l0.25,0l0.26,-0.01l0.17,0l-0.42,0.01l-0.36,0.01zm6.89,-0.02l-0.01,0l0.01,0l0,0zm-6.01,-0.01l0.28,-0.01l-0.31,0.01l0.03,0zm5.87,-0.01l0,0l0.01,0.01l-0.01,-0.01zm-17.74,-0.05l0.35,0.05l-1.41,-0.26l0.11,0.03l0.95,0.18zm12.3,0.05l0.46,-0.01l-0.3,0.01l-0.16,0zm0.5,-0.01l0.09,-0.01l-0.11,0.01l0.02,0zm4.7,-0.02l-0.03,0l0.01,0l0.02,0zm-4.17,0l0.02,0l-0.07,0l0.05,0zm0.54,-0.01l0.04,0l-0.09,0l0.05,0zm3.37,-0.02l-0.02,0l0.01,0l0.01,0zm-2.84,0l0.04,0l-0.07,0l0.03,0zm0.51,-0.01l0.01,0l-0.05,0l0.04,0zm0.43,-0.01l0.09,0l-0.04,0l-0.05,0zm0.47,-0.01l0.06,0l-0.04,0l-0.02,0zm1.02,0l-0.01,0l-0.01,0l0.02,0zm-18.08,-0.21l-1.3,-0.37l0.67,0.21l0.63,0.16zm-1.53,-0.44l0.08,0.03l-1.24,-0.51l0.31,0.15l0.85,0.33zm-1.65,-0.72l0.25,0.12l-1.09,-0.66l0.11,0.08l0.73,0.46zm-0.99,-0.67l-0.9,-0.83l0.5,0.52l0.4,0.31zm-0.98,-0.91l0.03,0.03l-0.68,-1.05l0.17,0.35l0.48,0.67zm-0.86,-1.43l0.1,0.2l-0.39,-1.23l0.02,0.19l0.27,0.84z"/>
  <path id="a2wAHi76tH" d="m349.06,440.64c0.54,-1.29 1.8,-1.07 2.66,-1.68c-7.68,0.91 -11.96,3.72 -16.15,-2.93c-0.5,-0.18 -4.48,-1.64 -4.98,-1.82c0,0 -10.46,-1.3 2.16,14.72c8.87,-7.46 15.21,-5.65 16.31,-8.29z"/>
 </defs>
 <g>
  <title>background</title>
  <rect fill="none" id="canvas_background" height="402" width="582" y="-1" x="-1"/>
 </g>
 <g>
  <title>Layer 1</title>
  <g id="svg_1">
   <g id="svg_2">
    <g stroke="null" id="svg_35">
     <use stroke="null" transform="matrix(1.7272233063539582,0,0,1.7272233063539582,-753.5074042758806,221.4585786857641) " x="291.357626" y="-320.386753" id="svg_36" fill="#49235a" xlink:href="#a2SznJ0Hm1"/>
     <g stroke="null" id="svg_37">
      <use stroke="#000000" transform="matrix(1.7272233063539582,0,0,1.7272233063539582,-753.5074042758806,221.4585786857641) " x="734.357626" y="-682.386753" id="svg_38" stroke-opacity="0" fill-opacity="0" xlink:href="#a2SznJ0Hm1"/>
     </g>
    </g>
    <g id="svg_39">
     <use x="70" y="-108" id="svg_40" fill-opacity="0" fill="#000000" xlink:href="#a2wAHi76tH"/>
     <g id="svg_41">
      <use x="70" y="-108" id="svg_42" stroke-opacity="0" stroke="#000000" fill-opacity="0" xlink:href="#a2wAHi76tH"/>
     </g>
    </g>
   </g>
  </g>
 </g>
</svg>