<?xml version="1.0" encoding="UTF-8" standalone="no"?>
<!DOCTYPE svg PUBLIC "-//W3C//DTD SVG 1.1//EN" "http://www.w3.org/Graphics/SVG/1.1/DTD/svg11.dtd">
<svg version="1.1" xmlns="http://www.w3.org/2000/svg" xmlns:xlink="http://www.w3.org/1999/xlink" preserveAspectRatio="xMidYMid meet" viewBox="0 0 640 640" width="640" height="640"><defs><path d="M102.49 502.16L280.78 163.86C233.24 73.98 206.83 24.05 201.55 14.06C194.97 1.7 178.25 4.85 176.09 18.69C170.99 51.3 145.5 214.33 99.61 507.78L102.49 502.16Z" id="c1QuRzsNro"></path><path d="M398.77 213.29C363.28 145.54 343.56 107.89 339.61 100.36C334 89.67 318.32 89.64 312.76 100.36C310.65 104.38 300.12 124.47 281.16 160.64L281.16 165.77L339.63 273.86L398.77 213.29Z" id="a23qvHidLC"></path><path d="M396.07 212.45C361.57 146.77 342.41 110.27 338.58 102.98C333.12 92.58 319.85 91.5 314.45 101.92C312.33 106 301.74 126.4 282.68 163.13L281.73 166.26L338.58 271.34L396.07 212.45Z" id="gHFZcCvPz"></path><path d="M99.09 510.11L105.36 507.56L335.92 277.86L338.84 269.91L281.32 160.31L97.36 511.85L99.09 510.11Z" id="esUAMwU4H"></path><path d="M347.02 627.69L555.67 511.32C519.92 291.14 500.06 168.81 496.09 144.35C494.22 132.87 480.14 128.33 471.92 136.56C446.95 161.58 322.1 286.67 97.36 511.85C221.84 581.34 290.99 619.96 304.82 627.68C317.93 635 333.9 635 347.02 627.69" id="e2K73keEh"></path><path d="M485.46 136.1L486.12 136.21L486.77 136.35L487.41 136.53L488.05 136.75L488.67 137.01L489.27 137.3L489.87 137.63L490.45 137.99L491.01 138.39L491.55 138.82L492.07 139.28L492.58 139.78L493.06 140.3L493.51 140.86L493.95 141.45L494.35 142.07L494.74 142.72L495.09 143.4L495.41 144.11L495.7 144.85L495.96 145.61L496.19 146.4L496.38 147.22L496.54 148.06L555.67 512.24L348.6 627.73L347.62 628.26L346.63 628.76L345.63 629.24L344.62 629.69L343.6 630.11L342.57 630.51L341.54 630.87L340.5 631.21L339.45 631.53L338.4 631.81L337.34 632.07L336.28 632.3L335.21 632.51L334.14 632.68L333.06 632.83L331.99 632.95L330.91 633.05L329.83 633.12L328.74 633.16L327.66 633.17L326.58 633.16L325.5 633.12L324.42 633.05L323.34 632.95L322.26 632.83L321.19 632.68L320.12 632.5L319.05 632.3L317.99 632.07L316.93 631.81L315.88 631.52L314.83 631.21L313.79 630.87L312.75 630.5L311.73 630.1L310.71 629.68L309.7 629.23L308.7 628.75L307.71 628.25L306.73 627.72L101.54 513.03L260.31 354.43L256.38 316.06L304.51 310.27L474.82 140.12L475.44 139.53L476.07 138.99L476.71 138.5L477.36 138.05L478.02 137.65L478.69 137.29L479.36 136.98L480.04 136.71L480.71 136.49L481.4 136.31L482.08 136.17L482.76 136.08L483.44 136.02L484.12 136.01L484.79 136.04L485.46 136.1Z" id="bo7yMOBb"></path><path d="M304.82 624.25C291.1 616.64 222.51 578.58 99.03 510.08L97.36 511.85C221.84 581.34 290.99 619.96 304.82 627.68C317.93 635 333.9 635 347.02 627.69C360.93 619.93 430.48 581.14 555.67 511.32L555.16 508.17L347.02 624.26C327.63 629.13 313.56 629.13 304.82 624.25Z" id="agCf2O3Zu"></path><path d="M101.17 506.51L281.35 164.63L281.73 161.01C234.07 71.5 207.6 21.77 202.3 11.82C195.65 -0.68 176.91 2.48 174.73 16.47C169.57 49.5 143.78 214.62 97.36 511.85L101.17 506.51Z" id="aqGuW0F7z"></path><path d="M297.7 197.66L301.67 198.44L305.88 199.46L310.33 200.7L314.98 202.16L319.82 203.81L324.82 205.64L329.98 207.64L335.27 209.79L340.67 212.07L346.15 214.49L351.71 217L357.32 219.62L362.97 222.31L368.62 225.06L374.27 227.87L379.89 230.71L385.47 233.57L390.98 236.44L396.4 239.3L401.72 242.14L406.91 244.94L411.97 247.69L416.85 250.37L421.56 252.97L426.06 255.47L430.34 257.87L434.38 260.13L438.16 262.26L441.66 264.24L444.86 266.05L447.74 267.67L450.28 269.09L452.46 270.31L454.26 271.29L453.94 362.58L454.05 364.61L454.21 366.47L454.42 368.19L454.67 369.77L454.96 371.22L455.3 372.54L455.66 373.75L456.06 374.86L456.48 375.88L456.93 376.8L457.41 377.65L457.9 378.43L458.41 379.15L458.93 379.82L459.47 380.45L460.01 381.04L460.55 381.61L461.1 382.16L461.64 382.7L462.18 383.25L462.71 383.81L463.23 384.38L463.74 384.99L464.23 385.63L464.7 386.32L465.15 387.06L465.57 387.86L465.96 388.74L466.32 389.7L466.64 390.75L466.93 391.9L467.17 393.15L467.37 394.52L467.53 396.02L467.63 397.65L467.68 399.42L467.67 401.35L467.61 403.43L467.48 405.69L467.28 408.12L467.01 410.79L466.68 413.28L466.3 415.61L465.87 417.78L465.39 419.81L464.87 421.69L464.31 423.44L463.71 425.07L463.07 426.57L462.41 427.97L461.71 429.26L460.98 430.46L460.23 431.57L459.45 432.6L458.66 433.55L457.85 434.44L457.02 435.28L456.18 436.06L455.33 436.79L454.47 437.5L453.61 438.17L452.74 438.83L451.88 439.47L451.02 440.1L450.16 440.74L449.31 441.39L448.48 442.05L447.65 442.74L446.85 443.46L446.06 444.22L445.29 445.03L444.55 445.9L443.83 446.82L443.14 447.82L442.48 448.89L441.86 450.05L441.27 451.3L440.73 452.64L440.22 454.1L439.76 455.67L439.26 457.57L438.78 459.42L438.33 461.23L437.91 463.01L437.5 464.74L437.12 466.45L436.77 468.13L436.43 469.78L436.12 471.4L435.83 473L435.55 474.58L435.3 476.15L435.06 477.69L434.85 479.23L434.65 480.75L434.46 482.27L434.29 483.78L434.14 485.28L434 486.79L433.87 488.29L433.76 489.8L433.66 491.32L433.57 492.84L433.49 494.38L433.43 495.93L433.37 497.49L433.32 499.08L433.28 500.68L433.24 502.31L433.22 503.96L433.2 505.64L433.18 507.36L433.17 509.1L433.17 510.88L433.16 512.7L433.16 514.56L433.17 516.46L433.17 518.4L433.17 520.4L433.18 522.44L454.2 522.57L460.56 551.58L452.45 551.58L449.82 529.63L441.91 536.98L426.69 535.41L426.94 464.03L409.58 485.39L409.18 486.5L408.79 487.61L408.4 488.71L408.01 489.79L407.63 490.87L407.26 491.94L406.88 492.99L406.51 494.04L406.14 495.08L405.77 496.11L405.4 497.13L405.03 498.14L404.67 499.14L404.3 500.14L403.93 501.13L403.57 502.11L403.2 503.08L402.83 504.05L402.45 505.01L402.08 505.97L401.7 506.92L401.32 507.86L400.94 508.8L400.55 509.74L400.16 510.67L399.76 511.59L399.36 512.51L398.96 513.43L398.55 514.35L398.13 515.26L397.7 516.16L397.27 517.07L396.83 517.97L396.39 518.87L395.93 519.77L395.47 520.67L395 521.56L394.52 522.45L394.03 523.35L393.53 524.24L392.9 525.35L392.3 526.43L391.72 527.47L391.17 528.48L390.63 529.45L390.1 530.39L389.59 531.29L389.09 532.16L388.6 533L388.11 533.81L387.62 534.58L387.14 535.32L386.65 536.04L386.16 536.72L385.66 537.37L385.15 537.99L384.62 538.58L384.09 539.14L383.53 539.67L382.96 540.17L382.36 540.65L381.74 541.1L381.09 541.52L380.41 541.92L379.7 542.28L378.95 542.63L378.17 542.94L377.35 543.24L376.48 543.51L375.57 543.75L374.61 543.97L373.6 544.17L372.54 544.34L371.42 544.49L370.25 544.62L369.01 544.73L367.72 544.81L366.35 544.88L364.92 544.92L363.42 544.95L362.99 545.14L362.58 545.32L362.2 545.49L361.85 545.63L361.52 545.77L361.22 545.89L360.94 546.01L360.68 546.11L360.44 546.2L360.23 546.29L360.03 546.37L359.85 546.45L359.68 546.52L359.53 546.59L359.39 546.66L359.27 546.73L359.16 546.8L359.05 546.87L358.96 546.95L358.87 547.03L358.8 547.12L358.72 547.22L358.65 547.32L358.59 547.43L358.52 547.56L358.46 547.7L358.4 547.85L358.33 548.01L358.26 548.19L358.19 548.39L358.11 548.61L358.03 548.85L357.94 549.1L357.84 549.38L357.73 549.68L357.61 550.01L357.48 550.36L357.33 550.74L357.17 551.15L357 551.58L320.25 551.58L309.59 547.99L308.99 547.71L308.41 547.43L307.86 547.13L307.32 546.81L306.8 546.49L306.31 546.15L305.83 545.8L305.36 545.43L304.91 545.06L304.48 544.67L304.06 544.27L303.65 543.85L303.25 543.43L302.86 542.99L302.49 542.54L302.12 542.07L301.76 541.6L301.4 541.11L301.05 540.61L300.71 540.09L300.37 539.57L300.03 539.03L299.69 538.48L299.36 537.91L299.02 537.34L298.68 536.75L298.34 536.15L298 535.54L297.65 534.92L297.29 534.28L296.93 533.63L296.57 532.97L296.19 532.3L295.81 531.61L295.41 530.92L295 530.21L294.59 529.49L294.15 528.75L293.71 528.01L293.25 527.25L292.8 528.18L292.39 529.05L292.02 529.88L291.68 530.66L291.37 531.41L291.09 532.11L290.84 532.78L290.62 533.42L290.43 534.02L290.27 534.6L290.12 535.16L290.01 535.69L289.91 536.2L289.84 536.69L289.79 537.16L289.76 537.63L289.74 538.08L289.75 538.53L289.77 538.97L289.8 539.41L289.85 539.84L289.91 540.29L289.98 540.73L290.06 541.19L290.15 541.65L290.25 542.13L290.36 542.62L290.47 543.13L290.58 543.66L290.7 544.22L290.82 544.8L290.95 545.4L291.07 546.04L291.19 546.71L291.31 547.42L291.43 548.17L291.54 548.95L291.65 549.78L291.74 550.66L291.83 551.58L285.85 551.58L285.53 550.82L285.24 550.13L284.97 549.51L284.73 548.95L284.52 548.46L284.33 548.02L284.16 547.64L284.01 547.3L283.87 547.02L283.75 546.77L283.65 546.57L283.56 546.4L283.47 546.26L283.4 546.15L283.33 546.07L283.27 546.01L283.21 545.96L283.15 545.93L283.09 545.9L283.02 545.88L282.96 545.87L282.88 545.85L282.8 545.83L282.71 545.79L282.61 545.75L282.49 545.69L282.36 545.6L282.21 545.5L282.04 545.36L281.85 545.2L281.64 545L281.4 544.76L281.14 544.48L280.85 544.15L280.52 543.78L280.17 543.35L279.79 542.86L279.36 542.31L278.91 541.69L278.41 541.01L279.45 539.21L280.45 537.42L281.43 535.64L282.37 533.88L283.28 532.13L284.16 530.4L285.01 528.68L285.83 526.99L286.63 525.31L287.4 523.65L288.14 522.01L288.86 520.39L289.56 518.79L290.23 517.22L290.89 515.66L291.52 514.13L292.13 512.63L292.72 511.15L293.29 509.69L293.85 508.26L294.39 506.86L294.91 505.49L295.42 504.14L295.92 502.83L296.4 501.54L296.87 500.29L297.33 499.07L297.78 497.88L298.22 496.72L298.65 495.6L299.07 494.51L299.49 493.45L299.9 492.44L300.31 491.46L300.71 490.51L301.11 489.61L301.51 488.74L301.9 487.91L302.3 487.13L302.7 486.38L302.76 487.37L302.8 488.34L302.83 489.27L302.83 490.19L302.83 491.08L302.8 491.94L302.77 492.79L302.71 493.62L302.64 494.42L302.56 495.21L302.47 495.99L302.36 496.75L302.24 497.5L302.11 498.23L301.96 498.96L301.81 499.67L301.65 500.38L301.47 501.08L301.29 501.77L301.09 502.46L300.89 503.14L300.68 503.83L300.47 504.51L300.25 505.19L300.02 505.88L299.78 506.56L299.54 507.25L299.29 507.95L299.04 508.65L298.79 509.36L298.53 510.08L298.27 510.81L298.01 511.55L297.74 512.31L297.48 513.08L297.21 513.86L296.95 514.66L296.68 515.48L296.41 516.31L296.15 517.17L312.66 541.92L313.77 542.04L314.84 542.15L315.89 542.26L316.91 542.36L317.9 542.44L318.87 542.52L319.81 542.59L320.74 542.65L321.64 542.7L322.52 542.75L323.39 542.78L324.24 542.81L325.08 542.83L325.9 542.84L326.72 542.85L327.52 542.84L328.32 542.83L329.11 542.82L329.9 542.8L330.68 542.77L331.46 542.73L332.24 542.69L333.02 542.64L333.81 542.59L334.59 542.53L335.39 542.47L336.19 542.4L337 542.33L337.82 542.25L338.65 542.17L339.5 542.08L340.36 541.99L341.24 541.89L342.14 541.79L343.05 541.69L343.99 541.58L344.95 541.47L345.93 541.36L346.94 541.24L347.98 541.12L349.09 541L350.18 540.89L351.23 540.79L352.25 540.7L353.25 540.62L354.22 540.55L355.17 540.48L356.09 540.42L356.99 540.36L357.87 540.31L358.72 540.25L359.56 540.2L360.37 540.14L361.17 540.08L361.95 540.01L362.72 539.94L363.47 539.86L364.21 539.78L364.93 539.68L365.65 539.57L366.35 539.45L367.05 539.31L367.73 539.17L368.41 539L369.09 538.81L369.75 538.61L370.42 538.39L371.08 538.14L371.74 537.87L372.4 537.58L373.06 537.26L373.72 536.92L374.38 536.54L375.05 536.14L375.72 535.7L376.4 535.23L377.08 534.73L377.77 534.19L378.47 533.62L379.18 533.01L379.93 532.33L380.68 531.59L381.43 530.8L382.2 529.95L382.97 529.06L383.75 528.11L384.53 527.12L385.31 526.08L386.1 525.01L386.9 523.89L387.7 522.74L388.49 521.56L389.3 520.35L390.1 519.11L390.9 517.84L391.71 516.55L392.51 515.24L393.31 513.92L394.11 512.57L394.91 511.22L395.71 509.85L396.5 508.48L397.29 507.1L398.07 505.72L398.85 504.34L399.63 502.97L400.4 501.6L401.16 500.23L401.91 498.88L402.66 497.54L403.4 496.21L404.13 494.9L404.85 493.61L405.56 492.35L406.26 491.11L406.94 489.9L407.62 488.72L408.29 487.57L408.94 486.46L409.58 485.39L422.51 444.33L425.26 444.66L427.9 444.76L430.44 444.65L432.87 444.33L435.19 443.82L437.41 443.12L439.52 442.24L441.53 441.2L443.42 440.01L445.21 438.67L446.89 437.19L448.46 435.6L449.92 433.88L451.27 432.07L452.52 430.16L453.65 428.16L454.67 426.1L455.58 423.97L456.37 421.78L457.06 419.56L457.63 417.3L458.09 415.02L458.43 412.73L458.67 410.44L458.79 408.15L458.79 405.89L458.68 403.65L458.45 401.45L458.11 399.31L457.65 397.22L457.08 395.2L456.38 393.26L455.58 391.41L454.65 389.67L453.6 388.03L452.44 386.51L451.16 385.13L449.76 383.89L448.23 382.8L446.59 381.87L445.97 382.4L445.38 382.94L444.82 383.49L444.3 384.03L443.81 384.58L443.36 385.13L442.93 385.68L442.52 386.23L442.14 386.78L441.79 387.34L441.45 387.9L441.14 388.45L440.84 389.01L440.55 389.58L440.28 390.14L440.02 390.7L439.77 391.27L439.53 391.83L439.29 392.4L439.06 392.97L438.83 393.53L438.59 394.1L438.36 394.67L438.12 395.24L437.88 395.81L437.63 396.38L437.37 396.95L437.1 397.52L436.81 398.09L436.51 398.65L436.19 399.22L435.86 399.79L435.5 400.36L435.12 400.92L434.71 401.49L434.28 402.06L433.82 402.62L433.33 403.18L432.81 403.75L432.25 404.31L417.12 404.04L417.87 376.51L416.67 377.63L415.43 378.72L414.15 379.77L412.84 380.79L411.49 381.77L410.11 382.72L408.69 383.62L407.25 384.49L405.78 385.32L404.28 386.12L402.76 386.87L401.21 387.58L399.63 388.26L398.04 388.89L396.42 389.49L394.78 390.04L393.13 390.55L391.46 391.02L389.77 391.45L388.07 391.84L386.35 392.18L384.62 392.48L382.89 392.73L381.14 392.95L379.38 393.11L377.62 393.23L375.85 393.31L374.08 393.34L372.31 393.33L370.53 393.27L368.76 393.16L366.98 393L365.21 392.8L363.44 392.55L361.68 392.25L359.92 391.9L358.17 391.5L356.43 391.05L354.7 390.55L352.98 390L353.15 388.98L353.34 388.04L353.53 387.18L353.74 386.39L353.95 385.67L354.16 385.02L354.39 384.42L354.61 383.87L354.85 383.37L355.08 382.92L355.32 382.5L355.56 382.11L355.81 381.75L356.05 381.42L356.29 381.1L356.53 380.79L356.78 380.49L357.01 380.19L357.25 379.89L357.48 379.59L357.7 379.27L357.92 378.93L358.14 378.57L358.35 378.18L358.54 377.76L358.73 377.3L358.92 376.8L359.09 376.25L359.25 375.64L359.39 374.98L359.53 374.26L359.65 373.47L359.76 372.6L359.85 371.66L359.93 370.63L359.99 369.52L360.04 368.31L360.06 367L360.07 365.59L360.06 364.07L360.4 364.43L360.73 364.77L361.05 365.09L361.35 365.4L361.64 365.68L361.91 365.96L362.13 366.17L361.83 365.76L361.3 365.17L360.71 364.61L360.06 364.07L364.89 353.53L365.24 355.51L365.51 357.22L365.71 358.69L365.86 359.95L365.96 361.04L366.05 362L366.12 362.85L366.21 363.64L366.32 364.39L366.48 365.14L366.69 365.92L366.97 366.78L367.35 367.73L367.82 368.83L368.42 370.09L369.16 371.57L369.96 371.28L370.75 370.99L371.52 370.72L372.29 370.45L373.06 370.19L373.84 369.94L374.64 369.69L375.46 369.46L376.32 369.23L377.21 369.01L378.14 368.81L379.12 368.61L380.16 368.42L381.27 368.24L382.44 368.07L383.7 367.91L384.71 367.9L385.63 367.9L386.47 367.89L387.22 367.88L387.88 367.87L388.48 367.87L388.99 367.86L389.44 367.85L389.83 367.85L390.15 367.84L390.41 367.84L390.62 367.84L390.78 367.85L390.9 367.86L390.97 367.87L391.01 367.89L391.01 367.91L390.98 367.94L390.93 367.98L390.85 368.02L390.76 368.07L390.65 368.12L390.53 368.19L390.4 368.26L390.27 368.34L390.15 368.43L390.02 368.53L389.91 368.64L389.81 368.76L389.73 368.89L389.66 369.03L389.62 369.19L389.62 369.35L389.64 369.53L389.7 369.73L389.8 369.93L389.94 370.15L390.14 370.39L390.38 370.64L390.68 370.91L390.71 371.64L390.74 372.33L390.76 372.98L390.77 373.58L390.78 374.14L390.79 374.67L390.79 375.16L390.79 375.62L390.79 376.04L390.79 376.44L390.79 376.81L390.79 377.15L390.79 377.47L390.79 377.77L390.8 378.05L390.8 378.31L390.82 378.56L390.83 378.8L390.85 379.02L390.88 379.24L390.92 379.45L390.96 379.65L391.01 379.85L391.06 380.05L391.13 380.26L391.21 380.47L391.29 380.68L391.39 380.9L391.5 381.13L391.62 381.37L391.76 381.63L391.91 381.9L392.07 382.19L392.25 382.5L392.45 382.84L392.66 383.2L392.89 383.58L393.13 383.99L393.4 384.44L393.68 384.91L393.95 384.9L394.22 384.89L394.49 384.89L394.76 384.88L395.03 384.87L395.31 384.87L395.58 384.86L395.86 384.85L396.14 384.85L396.42 384.84L396.7 384.83L396.98 384.82L397.26 384.81L397.54 384.8L397.83 384.79L398.11 384.77L398.39 384.75L398.67 384.74L398.95 384.72L399.23 384.69L399.51 384.67L399.79 384.64L400.07 384.61L400.35 384.57L400.63 384.53L400.9 384.49L401.17 384.44L401.44 384.39L401.71 384.34L401.98 384.28L402.24 384.22L402.51 384.15L402.77 384.08L403.02 384L403.28 383.92L403.53 383.83L403.78 383.74L404.02 383.64L404.26 383.53L404.5 383.42L405.23 383.06L405.89 382.74L406.49 382.46L407.03 382.21L407.51 381.99L407.93 381.79L408.31 381.62L408.64 381.48L408.92 381.36L409.16 381.25L409.36 381.16L409.52 381.09L409.65 381.03L409.75 380.98L409.82 380.95L409.86 380.91L409.88 380.88L409.88 380.86L409.86 380.83L409.83 380.81L409.78 380.78L409.73 380.74L409.67 380.69L409.61 380.64L409.55 380.57L409.49 380.49L409.43 380.39L409.39 380.27L409.35 380.13L409.33 379.97L409.32 379.79L409.33 379.57L409.37 379.33L409.43 379.06L409.52 378.75L409.64 378.41L409.79 378.03L409.98 377.61L410.2 377.15L410.47 376.64L410.18 376.33L409.92 376.05L409.71 375.79L409.54 375.55L409.41 375.34L409.3 375.15L409.23 374.97L409.18 374.82L409.16 374.68L409.16 374.56L409.17 374.45L409.2 374.35L409.24 374.27L409.29 374.19L409.34 374.13L409.39 374.07L409.44 374.02L409.49 373.97L409.53 373.92L409.56 373.88L409.57 373.84L409.57 373.8L409.54 373.75L409.5 373.7L409.42 373.65L409.32 373.59L409.18 373.52L409.01 373.44L408.8 373.35L408.55 373.26L408.25 373.14L407.9 373.02L407.5 372.87L407.05 372.71L406.54 372.54L405.96 372.34L405.33 372.12L404.62 371.88L403.85 371.61L403 371.32L402.67 371.21L402.35 371.1L402.04 371.01L401.75 370.93L401.47 370.85L401.2 370.79L400.95 370.73L400.7 370.68L400.47 370.63L400.25 370.6L400.04 370.57L399.83 370.54L399.63 370.53L399.44 370.52L399.26 370.51L399.08 370.51L398.91 370.51L398.74 370.51L398.57 370.52L398.41 370.54L398.25 370.55L398.1 370.57L397.94 370.59L397.78 370.61L397.63 370.63L397.47 370.66L397.31 370.68L397.14 370.7L396.98 370.73L396.81 370.75L396.64 370.77L396.46 370.79L396.27 370.81L396.08 370.83L395.88 370.84L395.68 370.85L395.46 370.86L395.24 370.86L395 370.86L394.76 370.86L398.93 369.43L399.5 369.36L400.05 369.29L400.58 369.24L401.09 369.18L401.58 369.14L402.05 369.1L402.51 369.06L402.95 369.04L403.38 369.02L403.79 369.01L404.2 369.01L404.59 369.01L404.98 369.03L405.36 369.05L405.74 369.08L406.11 369.13L406.48 369.18L406.84 369.24L407.21 369.32L407.58 369.4L407.95 369.5L408.32 369.61L408.7 369.73L409.08 369.86L409.47 370.01L409.87 370.17L410.29 370.34L410.71 370.52L411.14 370.72L411.59 370.93L412.05 371.16L412.54 371.4L413.03 371.66L413.55 371.93L414.09 372.22L414.65 372.53L415.23 372.85L415.84 373.19L416.48 373.54L417.14 373.91L413.2 318.29L413.18 317.69L413.17 317.12L413.16 316.57L413.15 316.04L413.15 315.54L413.15 315.06L413.16 314.6L413.18 314.16L413.2 313.73L413.23 313.32L413.27 312.92L413.31 312.54L413.37 312.17L413.43 311.8L413.5 311.45L413.58 311.1L413.67 310.76L413.78 310.42L413.89 310.08L414.01 309.75L414.15 309.41L414.3 309.08L414.47 308.74L414.64 308.39L414.83 308.04L415.04 307.68L415.26 307.32L415.5 306.94L415.75 306.55L416.02 306.15L416.3 305.74L416.6 305.3L416.93 304.85L417.26 304.39L417.62 303.9L418 303.39L418.4 302.86L418.81 302.3L419.25 301.71L419.71 301.1L415.61 301.15L411.51 301.23L407.41 301.34L403.32 301.48L399.22 301.66L395.13 301.86L391.04 302.08L386.95 302.34L382.87 302.62L378.78 302.92L374.7 303.24L370.62 303.59L366.54 303.95L362.46 304.33L358.38 304.73L354.31 305.15L350.24 305.58L346.17 306.02L342.11 306.48L338.04 306.95L333.98 307.43L329.93 307.91L325.87 308.4L321.82 308.9L317.77 309.41L313.73 309.91L309.68 310.42L305.65 310.93L301.61 311.44L297.58 311.95L293.55 312.46L289.52 312.96L285.5 313.46L281.48 313.95L277.47 314.43L273.46 314.9L269.45 315.37L265.45 315.82L261.45 316.26L257.45 316.68L258.78 334.96L259 336.57L259.22 338.21L259.43 339.89L259.65 341.59L259.86 343.32L260.07 345.08L260.27 346.86L260.48 348.67L260.68 350.5L260.88 352.35L261.07 354.21L261.27 356.09L261.46 357.99L261.65 359.9L261.83 361.82L262.01 363.75L262.19 365.69L262.37 367.64L262.54 369.59L262.71 371.55L262.87 373.51L263.03 375.47L263.19 377.42L263.35 379.38L263.5 381.33L263.64 383.27L263.79 385.2L263.93 387.13L264.06 389.05L264.19 390.95L264.32 392.84L264.44 394.71L264.56 396.56L264.67 398.4L264.78 400.21L264.89 402.01L264.99 403.77L265.09 405.52L265.18 407.23L265.26 408.92L265.31 409.92L265.35 410.92L265.39 411.91L265.42 412.89L265.45 413.86L265.47 414.83L265.5 415.79L265.51 416.75L265.53 417.7L265.54 418.65L265.56 419.6L265.57 420.54L265.58 421.48L265.58 422.41L265.59 423.35L265.6 424.29L265.61 425.22L265.62 426.16L265.63 427.09L265.64 428.03L265.66 428.97L265.67 429.91L265.69 430.85L265.72 431.79L265.74 432.74L265.78 433.7L265.81 434.66L265.85 435.62L265.9 436.59L265.95 437.56L266 438.55L266.06 439.54L266.13 440.53L266.21 441.54L266.29 442.55L266.39 443.57L266.49 444.61L266.6 445.65L266.71 446.7L266.84 447.77L267.05 449.4L267.25 450.93L267.46 452.34L267.66 453.66L267.87 454.88L268.07 456L268.28 457.04L268.48 458L268.69 458.88L268.9 459.68L269.12 460.42L269.33 461.1L269.56 461.72L269.78 462.28L270.02 462.8L270.25 463.27L270.5 463.71L270.75 464.11L271.01 464.49L271.27 464.84L271.55 465.17L271.83 465.49L272.12 465.8L272.42 466.11L272.74 466.42L273.06 466.73L273.4 467.06L273.74 467.4L274.1 467.76L274.48 468.14L274.86 468.56L275.27 469.01L275.68 469.51L276.11 470.04L276.56 470.63L277.02 471.27L277.5 471.98L278 472.74L278.52 473.58L279.05 474.49L285.51 467.91L286.33 466.88L287.1 465.89L287.83 464.94L288.53 464.02L289.18 463.13L289.79 462.27L290.36 461.45L290.9 460.65L291.41 459.88L291.88 459.13L292.31 458.41L292.72 457.71L293.09 457.03L293.44 456.37L293.75 455.73L294.04 455.1L294.31 454.49L294.55 453.9L294.76 453.31L294.96 452.74L295.13 452.17L295.29 451.61L295.42 451.06L295.54 450.51L295.64 449.97L295.72 449.42L295.8 448.88L295.85 448.33L295.9 447.78L295.94 447.23L295.97 446.67L295.99 446.1L296 445.52L296.01 444.93L296.01 444.33L296.01 443.72L296.01 443.09L296.01 442.45L296 441.78L296 441.1L296.02 439.92L296.08 438.78L296.18 437.66L296.33 436.56L296.51 435.5L296.73 434.47L296.99 433.46L297.28 432.49L297.62 431.55L297.99 430.65L298.39 429.78L298.83 428.94L299.31 428.14L299.82 427.37L300.37 426.65L300.94 425.95L301.55 425.3L302.2 424.69L302.87 424.11L303.57 423.58L304.31 423.09L305.07 422.64L305.86 422.23L306.69 421.87L307.53 421.55L308.41 421.28L309.31 421.05L310.24 420.87L311.2 420.74L312.18 420.66L313.18 420.62L314.21 420.63L315.26 420.7L316.33 420.81L317.43 420.98L318.55 421.2L319.68 421.48L320.84 421.8L322.02 422.19L323.22 422.63L324.08 408.88L324.1 408.83L324.11 408.78L324.12 408.73L324.13 408.67L324.14 408.62L324.16 408.57L324.17 408.51L324.18 408.46L324.2 408.4L324.21 408.35L324.23 408.29L324.24 408.24L324.26 408.18L324.27 408.12L324.29 408.07L324.3 408.01L324.32 407.95L324.33 407.9L324.35 407.84L324.37 407.79L324.38 407.73L324.4 407.67L324.42 407.62L324.43 407.56L324.46 407.46L324.48 407.4L324.49 407.35L324.51 407.3L324.52 407.24L324.54 407.19L324.55 407.14L324.57 407.09L324.58 407.04L324.6 406.99L324.61 406.94L324.62 406.9L324.63 406.85L324.65 406.81L324.66 406.76L324.67 406.72L324.68 406.68L324.69 406.63L324.71 406.59L324.72 406.54L324.74 406.49L324.75 406.44L324.77 406.39L324.79 406.34L324.81 406.29L324.83 406.24L324.85 406.18L324.87 406.13L324.89 406.08L324.91 406.02L324.93 405.97L324.95 405.91L324.97 405.86L324.99 405.81L325.02 405.75L325.04 405.7L325.06 405.64L325.1 405.54L325.12 405.48L325.14 405.43L325.16 405.38L325.18 405.33L325.2 405.28L325.22 405.24L325.24 405.19L325.26 405.14L325.27 405.1L325.29 405.06L325.3 405.02L325.32 404.98L325.33 404.94L325.34 404.9L325.35 404.87L325.36 404.83L325.37 404.8L325.38 404.77L325.39 404.74L325.41 404.7L325.42 404.66L325.43 404.62L325.44 404.58L325.46 404.54L325.47 404.5L325.49 404.46L325.5 404.41L325.52 404.37L325.53 404.32L325.55 404.27L325.57 404.22L325.58 404.18L325.6 404.13L325.62 404.08L325.64 404.03L325.66 403.98L325.68 403.93L325.7 403.87L325.72 403.82L325.74 403.77L325.77 403.72L325.79 403.67L325.81 403.62L325.83 403.57L325.86 403.52L325.88 403.47L325.91 403.42L325.93 403.37L325.96 403.32L325.98 403.28L326.01 403.23L326.03 403.18L326.06 403.14L326.09 403.09L326.11 403.05L326.14 403.01L326.52 403.84L326.87 404.67L327.19 405.5L327.49 406.34L327.76 407.17L328 408L328.22 408.83L328.42 409.66L328.6 410.5L328.76 411.33L328.89 412.17L329.02 413.01L329.12 413.85L329.21 414.69L329.29 415.54L329.36 416.39L329.41 417.24L329.46 418.1L329.49 418.95L329.52 419.82L329.55 420.68L329.57 421.55L329.58 422.43L329.6 423.31L329.61 424.19L329.62 425.08L329.64 425.98L329.66 426.88L329.68 427.78L329.71 428.69L329.75 429.61L329.79 430.54L329.84 431.47L329.91 432.41L329.98 433.36L330.07 434.31L330.18 435.27L330.3 436.24L330.43 437.22L330.59 438.21L330.57 438.2L330.51 438.2L330.42 438.19L330.31 438.19L330.16 438.18L329.99 438.18L329.81 438.19L329.6 438.2L329.38 438.22L329.15 438.25L328.91 438.3L328.67 438.36L328.42 438.44L328.18 438.53L327.94 438.64L327.71 438.78L327.49 438.93L327.29 439.12L327.1 439.32L326.93 439.56L326.79 439.83L326.67 440.13L326.59 440.46L326.53 440.83L326.52 441.23L326.54 441.68L326.6 442.16L326.71 442.69L326.87 443.26L327.09 443.87L327.35 444.54L327.68 445.25L328.06 446.01L328.51 446.83L329.03 447.7L329.62 448.63L330.28 449.61L331.02 450.65L331.84 451.76L332.75 452.93L321.98 453.75L321.86 452.77L321.76 451.81L321.68 450.87L321.63 449.94L321.59 449.04L321.57 448.15L321.56 447.29L321.57 446.44L321.59 445.61L321.63 444.8L321.67 444.01L321.72 443.23L321.78 442.47L321.84 441.73L321.9 441L321.97 440.29L322.04 439.6L322.11 438.93L322.17 438.27L322.24 437.62L322.29 436.99L322.34 436.38L322.38 435.78L322.41 435.19L322.43 434.62L322.44 434.07L322.43 433.53L322.41 433L322.37 432.49L322.31 431.99L322.23 431.5L322.13 431.02L322 430.56L321.85 430.11L321.68 429.68L321.47 429.25L321.24 428.84L320.97 428.44L320.68 428.05L320.35 427.67L319.58 426.88L318.83 426.16L318.09 425.51L317.36 424.93L316.64 424.41L315.93 423.95L315.23 423.56L314.55 423.22L313.87 422.95L313.21 422.74L312.56 422.58L311.93 422.48L311.31 422.43L310.7 422.44L310.11 422.49L309.53 422.6L308.96 422.76L308.42 422.96L307.88 423.21L307.37 423.51L306.87 423.85L306.38 424.23L305.92 424.66L305.47 425.12L305.04 425.62L304.63 426.16L304.23 426.74L303.86 427.35L303.5 427.99L303.17 428.66L302.85 429.37L302.56 430.1L302.28 430.86L302.03 431.65L301.8 432.47L301.59 433.3L301.4 434.16L301.23 435.05L301.09 435.95L300.97 436.87L301.61 437.12L302.2 437.33L302.74 437.5L303.24 437.63L303.7 437.74L304.12 437.81L304.51 437.85L304.87 437.87L305.2 437.87L305.5 437.85L305.79 437.81L306.05 437.75L306.29 437.69L306.52 437.61L306.73 437.53L306.94 437.44L307.14 437.35L307.33 437.27L307.53 437.18L307.73 437.11L307.93 437.04L308.14 436.99L308.36 436.95L308.59 436.92L308.84 436.92L309.1 436.94L309.39 436.98L309.7 437.05L310.04 437.15L310.41 437.29L310.81 437.46L311.25 437.67L311.72 437.92L312.24 438.21L312.8 438.55L313.4 438.94L314.05 439.38L314.76 439.87L315.52 440.42L316.34 441.03L316.31 441.65L316.26 442.33L316.18 443.05L316.08 443.82L315.96 444.63L315.82 445.47L315.66 446.36L315.49 447.27L315.29 448.22L315.08 449.2L314.86 450.2L314.62 451.22L314.36 452.26L314.1 453.32L313.82 454.39L313.53 455.47L313.24 456.56L312.93 457.65L312.62 458.75L312.3 459.84L311.97 460.93L311.64 462.01L311.31 463.08L310.97 464.14L310.63 465.19L310.3 466.21L309.96 467.22L309.62 468.2L309.28 469.15L308.95 470.08L308.62 470.97L308.3 471.82L307.98 472.64L307.67 473.41L307.37 474.14L307.08 474.82L306.8 475.45L306.52 476.03L306.26 476.56L306.01 477.02L306.07 476.42L306.14 475.84L306.21 475.29L306.28 474.75L306.35 474.23L306.43 473.73L306.51 473.24L306.59 472.78L306.68 472.32L306.77 471.88L306.86 471.46L306.96 471.04L307.05 470.64L307.15 470.24L307.26 469.86L307.36 469.48L307.46 469.11L307.57 468.74L307.68 468.38L307.79 468.02L307.9 467.67L308.02 467.32L308.13 466.96L308.25 466.61L308.36 466.26L308.48 465.9L308.6 465.54L308.72 465.17L308.84 464.8L308.96 464.43L309.08 464.04L309.2 463.65L309.32 463.24L309.44 462.83L309.56 462.41L309.68 461.97L309.8 461.52L309.92 461.05L310.04 460.57L310.15 460.07L310.39 459.05L310.62 458.08L310.84 457.18L311.05 456.34L311.24 455.55L311.42 454.81L311.59 454.13L311.75 453.49L311.89 452.9L312.01 452.35L312.12 451.85L312.22 451.38L312.29 450.95L312.35 450.56L312.39 450.19L312.42 449.86L312.42 449.56L312.4 449.28L312.36 449.02L312.3 448.79L312.22 448.57L312.12 448.37L311.99 448.18L311.84 448.01L311.66 447.85L311.46 447.69L311.23 447.54L310.98 447.39L310.7 447.24L310.39 447.09L310.05 446.93L309.69 446.77L309.29 446.6L308.87 446.42L308.41 446.22L307.92 446.01L307.4 445.78L306.85 445.54L306.26 445.26L305.64 444.97L305.27 445.07L304.86 445.29L304.43 445.61L303.97 446.03L303.48 446.54L302.97 447.15L302.44 447.84L301.88 448.62L301.31 449.46L300.71 450.38L300.09 451.36L299.46 452.4L298.81 453.49L298.15 454.64L297.47 455.82L296.78 457.05L296.07 458.3L295.36 459.59L294.64 460.9L293.9 462.22L293.17 463.56L292.42 464.9L291.67 466.25L290.92 467.59L290.17 468.92L289.41 470.24L288.66 471.54L287.9 472.82L287.15 474.07L286.4 475.28L285.66 476.45L284.92 477.58L284.19 478.65L283.47 479.67L282.76 480.63L282.06 481.53L281.37 482.35L280.69 483.09L280.03 483.76L279.38 484.33L278.88 484.22L278.41 484.09L277.96 483.96L277.55 483.82L277.16 483.67L276.8 483.51L276.46 483.34L276.14 483.17L275.85 482.98L275.57 482.79L275.3 482.59L275.06 482.38L274.82 482.16L274.6 481.94L274.39 481.71L274.19 481.46L273.99 481.22L273.8 480.96L273.62 480.69L273.43 480.42L273.25 480.14L273.06 479.86L272.88 479.56L272.68 479.26L272.49 478.95L272.28 478.63L272.06 478.31L271.84 477.98L271.6 477.64L271.34 477.29L271.08 476.94L270.79 476.58L270.48 476.21L270.16 475.84L269.81 475.46L269.43 475.08L269.03 474.68L268.61 474.28L268.15 473.88L267.66 473.46L267.4 474.09L267.15 474.67L266.93 475.21L266.73 475.71L266.55 476.18L266.39 476.61L266.24 477.01L266.1 477.38L265.98 477.73L265.87 478.04L265.77 478.33L265.67 478.6L265.58 478.84L265.5 479.07L265.42 479.28L265.34 479.47L265.26 479.65L265.18 479.82L265.09 479.98L265 480.13L264.91 480.27L264.8 480.41L264.68 480.55L264.56 480.69L264.42 480.83L264.26 480.97L264.09 481.11L263.9 481.27L263.69 481.43L263.46 481.6L263.21 481.78L262.93 481.98L262.63 482.2L262.3 482.43L261.94 482.69L261.55 482.96L261.13 483.26L260.67 483.58L260.18 483.94L259.65 484.32L254.92 474.49L254.5 474.77L254.1 475.03L253.73 475.29L253.37 475.54L253.03 475.78L252.71 476.01L252.4 476.23L252.11 476.44L251.83 476.65L251.56 476.86L251.3 477.05L251.06 477.24L250.82 477.43L250.58 477.61L250.36 477.79L250.13 477.97L249.92 478.14L249.7 478.32L249.48 478.49L249.27 478.66L249.05 478.83L248.83 479L248.6 479.17L248.37 479.34L248.14 479.51L247.89 479.69L247.64 479.87L247.38 480.05L247.1 480.24L246.81 480.43L246.51 480.62L246.2 480.83L245.86 481.03L245.51 481.25L245.14 481.47L244.75 481.7L244.34 481.93L243.91 482.18L243.45 482.43L242.97 482.7L242.94 482.66L242.9 482.62L242.86 482.58L242.83 482.54L242.79 482.49L242.75 482.44L242.72 482.38L242.68 482.33L242.64 482.27L242.61 482.21L242.57 482.15L242.53 482.09L242.5 482.03L242.46 481.97L242.42 481.91L242.39 481.85L242.35 481.78L242.32 481.72L242.28 481.67L242.25 481.61L242.21 481.55L242.18 481.5L242.15 481.45L242.12 481.4L242.09 481.35L242.05 481.31L242.03 481.27L242 481.23L241.97 481.2L241.94 481.17L241.92 481.15L241.89 481.13L241.87 481.11L241.85 481.11L241.83 481.1L241.81 481.11L241.79 481.11L241.77 481.13L241.75 481.15L241.74 481.18L241.7 481.26L241.66 481.33L241.61 481.38L241.56 481.41L241.51 481.43L241.45 481.43L241.39 481.42L241.34 481.4L241.27 481.36L241.21 481.31L241.15 481.25L241.08 481.18L241.01 481.11L240.94 481.02L240.87 480.92L240.8 480.82L240.73 480.71L240.65 480.6L240.58 480.48L240.51 480.36L240.43 480.23L240.36 480.1L240.28 479.96L240.21 479.83L240.14 479.69L240.06 479.56L239.99 479.42L239.92 479.29L239.85 479.16L239.78 479.03L239.72 478.91L239.65 478.78L239.59 478.67L239.52 478.56L239.46 478.46L239.4 478.36L239.35 478.27L239.3 478.19L239.24 478.12L239.2 478.06L239.17 478.03L239.14 477.99L239.11 477.96L239.09 477.92L239.06 477.89L239.02 477.85L238.99 477.81L238.96 477.77L238.93 477.73L238.9 477.69L238.86 477.65L238.83 477.61L238.79 477.56L238.76 477.52L238.72 477.48L238.69 477.43L238.58 477.3L238.51 477.21L238.47 477.16L238.43 477.12L238.4 477.07L238.36 477.03L238.32 476.98L238.29 476.94L238.25 476.89L238.22 476.85L238.18 476.81L238.15 476.77L238.11 476.72L238.08 476.68L238.05 476.64L238.02 476.6L237.98 476.56L237.95 476.53L237.92 476.49L237.89 476.46L237.86 476.42L237.83 476.39L237.8 476.35L237.77 476.31L237.74 476.28L237.71 476.24L237.67 476.2L237.64 476.16L237.6 476.12L237.53 476.03L237.49 475.99L237.42 475.9L237.38 475.86L237.34 475.81L237.3 475.77L237.27 475.72L237.19 475.63L237.11 475.54L237.03 475.45L236.96 475.36L236.88 475.27L236.77 475.15L236.66 475.02L236.45 474.77L233.42 471.4L232.82 472.43L232.17 473.58L231.47 474.87L230.74 476.28L229.96 477.8L229.15 479.43L228.3 481.17L227.42 483L226.51 484.92L225.58 486.92L224.63 488.99L223.66 491.14L222.67 493.34L221.66 495.6L220.65 497.91L219.63 500.26L218.6 502.65L217.57 505.06L216.54 507.49L215.52 509.94L214.5 512.4L213.49 514.86L212.5 517.31L211.52 519.75L210.55 522.17L209.61 524.56L208.7 526.92L207.81 529.24L206.95 531.52L206.12 533.74L205.33 535.91L204.57 538L203.86 540.03L203.19 541.97L202.57 543.83L202 545.59L201.49 547.26L201.03 548.82L200.62 550.26L200.28 551.58L194.45 551.58L194.71 550.62L195.06 549.45L195.47 548.09L195.97 546.56L196.53 544.86L197.17 543L197.86 541.01L198.62 538.88L199.43 536.62L200.3 534.26L201.22 531.8L202.18 529.25L203.19 526.63L204.24 523.94L205.32 521.2L206.44 518.41L207.59 515.59L208.76 512.75L209.95 509.91L211.17 507.06L212.4 504.23L213.64 501.42L214.89 498.65L216.14 495.93L217.4 493.26L218.65 490.66L219.9 488.14L221.15 485.72L222.37 483.4L223.59 481.19L224.78 479.11L225.95 477.16L227.1 475.36L228.22 473.72L229.3 472.25L230.35 470.96L231.35 469.87L232.32 468.98L233.23 468.3L234.1 467.85L235.24 467.41L236.27 467.04L237.21 466.73L238.06 466.48L238.82 466.29L239.51 466.15L240.11 466.06L240.65 466.02L241.11 466.03L241.52 466.08L241.88 466.16L242.18 466.28L242.45 466.44L242.67 466.62L242.86 466.83L243.02 467.07L243.15 467.32L243.27 467.59L243.38 467.87L243.48 468.17L243.58 468.47L243.68 468.78L243.78 469.1L243.91 469.41L244.05 469.71L244.21 470.01L244.41 470.3L244.64 470.57L244.91 470.83L245.22 471.07L245.59 471.28L246.01 471.47L246.49 471.64L247.04 471.77L247.66 471.86L248.36 471.92L249.14 471.93L250 471.91L250.96 471.83L252.02 471.71L252.04 471.7L252.08 471.69L252.13 471.67L252.19 471.65L252.27 471.62L252.36 471.58L252.46 471.54L252.57 471.49L252.7 471.44L252.84 471.39L252.99 471.33L253.15 471.27L253.32 471.2L253.5 471.13L253.69 471.06L253.89 470.99L254.1 470.91L254.33 470.83L254.56 470.75L254.8 470.67L255.04 470.59L255.3 470.5L255.56 470.42L255.83 470.33L256.11 470.25L256.4 470.16L256.69 470.08L256.99 469.99L257.3 469.91L257.61 469.83L257.93 469.75L258.25 469.67L258.58 469.59L258.91 469.52L259.25 469.44L259.59 469.37L259.94 469.31L260.29 469.25L260.65 469.19L261 469.13L258.51 436.88L258.23 436.7L257.97 436.55L257.74 436.4L257.53 436.28L257.35 436.17L257.19 436.07L257.05 435.99L256.93 435.91L256.83 435.86L256.75 435.81L256.67 435.77L256.61 435.74L256.56 435.72L256.52 435.71L256.49 435.71L256.46 435.71L256.43 435.72L256.41 435.73L256.39 435.75L256.36 435.77L256.34 435.79L256.31 435.82L256.27 435.84L256.22 435.87L256.17 435.9L256.1 435.92L256.03 435.94L255.93 435.96L255.82 435.98L255.69 435.99L255.55 436L255.38 436L255.19 436L254.97 435.98L254.73 435.96L254.46 435.93L254.16 435.89L253.83 435.84L253.46 435.78L253.06 435.71L246.3 434.3L247 434.01L247.65 433.75L248.27 433.52L248.85 433.31L249.38 433.12L249.89 432.95L250.35 432.8L250.79 432.66L251.19 432.54L251.57 432.43L251.91 432.33L252.24 432.24L252.53 432.16L252.81 432.08L253.07 432L253.3 431.92L253.53 431.84L253.73 431.76L253.93 431.67L254.11 431.58L254.28 431.48L254.45 431.37L254.61 431.24L254.76 431.1L254.92 430.95L255.07 430.78L255.22 430.58L255.38 430.37L255.54 430.13L255.71 429.86L255.89 429.57L256.07 429.25L256.27 428.9L256.48 428.51L256.71 428.09L256.96 427.63L257.22 427.14L257.51 426.6L257.82 426.02L258.15 425.4L244.81 419.66L244.93 418.72L245.04 417.67L245.15 416.52L245.25 415.26L245.35 413.92L245.44 412.48L245.53 410.96L245.61 409.36L245.68 407.7L245.75 405.97L245.8 404.17L245.86 402.33L245.9 400.43L245.93 398.5L245.96 396.52L245.97 394.52L245.98 392.49L245.97 390.44L245.96 388.38L245.93 386.31L245.89 384.24L245.84 382.17L245.78 380.1L245.7 378.06L245.61 376.03L245.51 374.03L245.39 372.07L245.26 370.14L245.12 368.25L244.96 366.41L244.78 364.63L244.58 362.91L244.37 361.25L244.15 359.67L243.9 358.16L243.64 356.74L243.36 355.4L243.06 354.16L242.74 353.03L242.4 351.99L241.91 350.79L241.34 349.68L240.68 348.66L239.94 347.72L239.12 346.87L238.23 346.08L237.27 345.37L236.24 344.72L235.14 344.13L233.98 343.59L232.76 343.1L231.48 342.66L230.15 342.26L228.77 341.89L227.33 341.54L225.86 341.23L224.34 340.93L222.78 340.65L221.18 340.37L219.55 340.1L217.88 339.83L216.19 339.56L214.47 339.27L212.73 338.96L210.97 338.64L209.19 338.29L207.4 337.91L205.6 337.49L203.79 337.04L201.97 336.53L200.15 335.98L198.33 335.37L196.51 334.7L194.7 333.97L192.9 333.16L191.11 332.28L189.33 331.31L187.57 330.26L185.83 329.12L184.12 327.89L184.98 326.9L185.93 325.95L186.94 325.03L188.03 324.14L189.18 323.27L190.4 322.43L191.67 321.62L193 320.83L194.38 320.06L195.8 319.32L197.27 318.59L198.79 317.88L200.34 317.19L201.92 316.51L203.53 315.84L205.17 315.19L206.84 314.55L208.52 313.92L210.22 313.29L211.93 312.67L213.65 312.06L215.37 311.45L217.1 310.84L218.82 310.23L220.54 309.62L222.25 309.01L223.94 308.39L225.62 307.77L227.28 307.14L228.92 306.51L230.53 305.86L232.11 305.2L233.65 304.54L235.16 303.85L236.62 303.15L238.04 302.44L239.42 301.7L240.74 300.95L242 300.17L243.21 299.38L242.39 299.03L241.46 298.62L240.43 298.15L239.3 297.62L238.08 297.04L236.77 296.41L235.38 295.74L233.92 295.01L232.39 294.25L230.8 293.44L229.15 292.6L227.44 291.73L225.7 290.82L223.91 289.89L222.09 288.93L220.24 287.94L218.37 286.94L216.49 285.92L214.59 284.89L212.69 283.84L210.79 282.79L208.9 281.73L207.02 280.67L205.16 279.61L203.32 278.55L201.51 277.49L199.74 276.45L198.01 275.41L196.33 274.39L194.7 273.39L193.13 272.41L191.63 271.44L190.19 270.51L188.84 269.6L187.56 268.72L186.38 267.87L185.28 267.07L184.29 266.3L183.4 265.57L182.63 264.89L182.24 264.53L181.87 264.2L181.52 263.9L181.2 263.63L180.89 263.39L180.61 263.16L180.35 262.96L180.11 262.78L179.88 262.62L179.68 262.47L179.48 262.33L179.31 262.21L179.14 262.1L178.99 261.99L178.85 261.89L178.72 261.79L178.6 261.7L178.5 261.61L178.39 261.51L178.3 261.41L178.21 261.31L178.13 261.2L178.05 261.08L177.97 260.95L177.9 260.8L177.83 260.64L177.75 260.47L177.68 260.27L177.61 260.06L177.53 259.82L177.45 259.55L177.36 259.26L177.27 258.95L177.17 258.6L177.06 258.22L176.95 257.8L176.82 257.35L176.69 256.86L176.54 256.33L176.38 255.76L179.32 255.06L182.32 254.38L185.38 253.75L188.51 253.14L191.69 252.56L194.93 252.02L198.22 251.5L201.56 251.02L204.94 250.56L208.37 250.12L211.83 249.71L215.34 249.32L218.87 248.95L222.44 248.6L226.03 248.27L229.64 247.96L233.28 247.66L236.93 247.38L240.6 247.12L244.28 246.87L247.97 246.62L251.66 246.39L255.36 246.17L259.05 245.96L262.74 245.75L266.42 245.55L270.1 245.35L273.76 245.15L277.4 244.96L281.02 244.77L284.63 244.57L288.2 244.38L291.75 244.18L295.26 243.98L298.74 243.77L302.19 243.55L305.59 243.33L308.94 243.09L312.25 242.85L315.51 242.59L315.38 241.92L315.14 241.21L314.8 240.47L314.36 239.7L313.83 238.89L313.21 238.05L312.51 237.18L311.73 236.29L310.89 235.36L309.98 234.41L309.01 233.43L307.99 232.43L306.91 231.4L305.8 230.35L304.65 229.28L303.47 228.19L302.26 227.09L301.04 225.96L299.79 224.82L298.54 223.66L297.29 222.48L296.04 221.29L294.79 220.09L293.56 218.88L292.35 217.66L291.16 216.43L290 215.19L288.87 213.94L287.79 212.69L286.75 211.43L285.77 210.17L284.84 208.91L283.98 207.64L283.18 206.38L282.46 205.11L281.82 203.85L281.26 202.59L280.79 201.33L280.42 200.08L280.16 198.83L282.23 197.87L284.68 197.23L287.46 196.91L290.58 196.88L293.99 197.14L297.7 197.66ZM322.38 492.4L323.72 493.57L324.94 494.57L326.06 495.43L327.09 496.17L328.04 496.83L328.94 497.44L329.8 498.01L330.63 498.58L331.45 499.17L332.28 499.8L333.12 500.52L334 501.34L334.92 502.28L335.91 503.39L336.97 504.68L338.13 506.18L335.72 506.85L333.5 507.32L331.46 507.59L329.58 507.67L327.84 507.56L326.23 507.27L324.74 506.81L323.34 506.19L322.02 505.41L320.77 504.47L319.57 503.39L318.39 502.18L317.24 500.83L316.08 499.36L314.91 497.78L313.71 496.08L312.45 494.28L312.96 493.72L313.51 493.13L314.09 492.51L314.72 491.85L315.39 491.15L316.1 490.42L316.85 489.65L317.63 488.85L318.46 488.02L319.33 487.14L320.24 486.24L321.19 485.29L322.18 484.32L323.21 483.3L324.28 482.25L325.39 481.17L326.54 480.05L320.92 491.04L322.38 492.4ZM349.51 443.28L347.49 443.64L345.64 443.99L343.92 444.24L342.34 444.33L340.85 444.2L339.46 443.77L338.12 442.98L336.84 441.76L335.57 440.03L337.89 438.39L339.62 437.39L340.91 436.84L341.92 436.55L342.8 436.34L343.72 436.03L344.82 435.41L346.26 434.31L348.19 432.55L350.78 429.93L350.88 429.81L351.01 429.66L351.14 429.5L351.28 429.32L351.43 429.12L351.59 428.93L351.75 428.73L351.91 428.53L352.07 428.35L352.23 428.18L351.72 442.96L349.51 443.28ZM430.17 409.54L430.51 409.99L430.87 410.53L431.58 411.06L426.29 414.33L422.31 415.95L419.45 416.32L417.51 415.86L416.3 414.98L415.63 414.1L415.31 413.63L416.99 412.54L417.46 411.94L417.33 411.66L417.23 411.51L417.77 411.31L419.57 410.89L423.25 410.07L426.42 409.42L428.43 409.17L429.58 409.24L430.17 409.54ZM286.8 377.94L288.16 377.74L289.51 377.54L290.85 377.33L292.19 377.13L293.52 376.94L294.85 376.75L296.16 376.57L297.47 376.39L298.77 376.23L300.05 376.09L301.33 375.95L302.59 375.84L303.85 375.74L305.08 375.66L306.31 375.6L307.52 375.57L308.71 375.56L309.89 375.58L311.05 375.63L312.2 375.71L313.33 375.82L314.43 375.96L315.52 376.14L316.59 376.36L317.64 376.61L318.67 376.91L319.67 377.25L320.66 377.63L321.62 378.06L322.55 378.53L323.46 379.06L324.35 379.64L325.2 380.27L326.04 380.95L326.84 381.69L327.62 382.49L328.36 383.35L329.08 384.26L329.77 385.25L329.57 385.91L329.4 386.52L329.26 387.08L329.14 387.6L329.04 388.07L328.96 388.5L328.9 388.9L328.85 389.25L328.82 389.58L328.8 389.87L328.78 390.13L328.77 390.36L328.76 390.58L328.76 390.76L328.75 390.93L328.74 391.08L328.73 391.22L328.71 391.34L328.67 391.45L328.63 391.56L328.57 391.65L328.5 391.75L328.41 391.84L328.29 391.93L328.15 392.03L327.99 392.13L327.8 392.25L327.58 392.37L327.33 392.5L327.04 392.65L326.72 392.82L326.36 393L325.96 393.21L325.51 393.45L325.02 393.71L324.48 394L323.89 394.32L323.25 394.67L322.56 395.06L321.8 395.49L320.65 396.13L319.48 396.75L318.28 397.34L317.06 397.9L315.83 398.43L314.57 398.94L313.3 399.43L312.01 399.88L310.71 400.32L309.39 400.72L308.06 401.11L306.72 401.46L305.37 401.8L304.01 402.1L302.64 402.39L301.26 402.65L299.88 402.89L298.49 403.1L297.09 403.29L295.7 403.46L294.3 403.6L292.9 403.73L291.5 403.83L290.1 403.91L288.7 403.96L287.31 404L285.92 404.01L284.54 404.01L283.16 403.98L281.79 403.93L280.43 403.86L279.08 403.77L277.75 403.66L276.42 403.53L275.1 403.39L273.8 403.22L272.52 403.03L271.25 402.83L270 402.6L268.77 402.36L269.38 384.47L270.36 384.27L271.27 384.09L272.1 383.93L272.86 383.78L273.54 383.66L274.16 383.55L274.72 383.45L275.21 383.38L275.65 383.32L276.04 383.27L276.37 383.24L276.65 383.23L276.89 383.22L277.08 383.23L277.24 383.26L277.36 383.29L277.44 383.34L277.5 383.39L277.53 383.46L277.53 383.54L277.52 383.62L277.48 383.72L277.43 383.82L277.37 383.94L277.3 384.06L277.23 384.18L277.15 384.31L277.07 384.45L277 384.6L276.93 384.74L276.88 384.9L276.83 385.05L276.81 385.21L276.8 385.37L276.81 385.54L276.85 385.7L276.92 385.87L277.01 386.04L277.15 386.21L277.31 386.37L276.89 387.18L276.52 387.94L276.19 388.66L275.92 389.34L275.69 389.99L275.51 390.59L275.37 391.17L275.28 391.7L275.23 392.2L275.23 392.68L275.27 393.12L275.34 393.53L275.46 393.91L275.62 394.26L275.81 394.59L276.04 394.9L276.31 395.18L276.61 395.44L276.94 395.68L277.31 395.9L277.7 396.1L278.13 396.28L278.59 396.45L279.07 396.61L279.59 396.75L280.13 396.87L280.69 396.99L281.28 397.1L281.89 397.2L282.52 397.29L283.18 397.38L283.85 397.46L284.55 397.54L285.26 397.62L285.99 397.7L286.73 397.78L287.49 397.86L288.26 397.94L289.05 398.02L289.85 398.12L288.3 379.43L280.94 382.85L280.77 382.11L280.61 381.38L280.44 380.67L280.28 379.98L280.12 379.3L279.96 378.64L279.81 377.99L279.67 377.36L279.53 376.74L279.39 376.13L279.27 375.53L279.16 374.95L279.05 374.38L278.96 373.82L278.87 373.27L278.8 372.72L278.75 372.19L278.71 371.66L278.68 371.15L278.67 370.64L278.67 370.13L278.7 369.64L278.74 369.14L278.8 368.66L278.88 368.18L278.98 367.7L279.11 367.22L279.26 366.75L279.43 366.28L279.62 365.81L279.84 365.34L280.09 364.87L280.37 364.4L280.67 363.93L281 363.46L281.36 362.99L281.75 362.51L282.18 362.04L282.63 361.55L283.12 361.07L285.44 378.15L286.8 377.94ZM356.18 399.19L356.92 400.07L357.29 401.25L358.41 402.98L351.49 401.8L349.3 401.24L349.64 400.7L350.31 399.6L349.12 397.33L353.96 398.36L356.18 399.19ZM301.74 379.3L298.58 379.49L295.15 379.68L297.79 397.08L323.45 392.45L322.76 389.57L321.94 387.12L320.99 385.07L319.9 383.38L318.66 382.03L317.24 380.97L315.66 380.19L313.88 379.64L311.9 379.29L309.71 379.12L307.29 379.08L304.64 379.15L301.74 379.3ZM362.69 376.77L362.83 377.45L362.96 378.06L363.07 378.63L363.18 379.14L363.27 379.61L363.35 380.02L363.42 380.4L363.48 380.73L363.53 381.03L363.58 381.28L363.62 381.51L363.65 381.7L363.68 381.87L363.7 382L363.72 382.12L363.74 382.21L363.76 382.29L363.77 382.34L363.79 382.39L363.81 382.42L363.83 382.45L363.85 382.46L363.87 382.48L363.9 382.49L363.94 382.5L363.98 382.52L364.03 382.55L364.08 382.58L364.15 382.62L364.22 382.68L364.31 382.75L364.4 382.85L364.51 382.96L364.63 383.1L364.76 383.26L364.91 383.45L365.08 383.67L365.26 383.93L365.45 384.22L384.05 387.49L384.04 371.01L362.53 376.04L362.69 376.77ZM304.85 317.1L305.42 317.16L305.97 317.24L306.51 317.34L307.03 317.46L307.55 317.6L308.07 317.76L308.59 317.94L309.12 318.14L309.66 318.35L310.21 318.59L310.79 318.84L311.39 319.11L312.02 319.4L312.68 319.71L313.38 320.03L314.12 320.37L315.77 321.1L317.19 321.73L318.41 322.26L319.43 322.71L320.27 323.07L320.95 323.37L321.48 323.6L321.88 323.79L322.16 323.93L322.33 324.04L322.42 324.13L322.44 324.2L322.39 324.27L322.3 324.35L322.19 324.44L322.06 324.55L321.93 324.7L321.82 324.89L321.74 325.13L321.7 325.44L321.73 325.81L321.84 326.27L322.04 326.81L322.34 327.46L322.77 328.21L323.33 329.08L324.05 330.08L328.63 333.93L327.35 334.74L326.2 335.52L325.19 336.26L324.28 336.98L323.48 337.67L322.76 338.32L322.13 338.94L321.55 339.54L321.03 340.1L320.55 340.63L320.09 341.13L319.65 341.6L319.21 342.05L318.75 342.46L318.28 342.85L317.77 343.2L317.21 343.53L316.59 343.83L315.9 344.11L315.13 344.35L314.26 344.57L313.27 344.76L312.17 344.93L310.93 345.06L309.54 345.17L307.99 345.26L306.28 345.32L273.22 342.23L272.93 341.38L272.66 340.65L272.4 340.02L272.17 339.48L271.95 339.04L271.76 338.67L271.6 338.37L271.46 338.14L271.35 337.96L271.26 337.83L271.21 337.74L271.18 337.68L271.19 337.64L271.23 337.61L271.3 337.59L271.42 337.57L271.56 337.54L271.75 337.49L271.98 337.41L272.25 337.29L272.56 337.13L272.92 336.92L273.32 336.65L273.77 336.31L274.26 335.89L274.81 335.39L275.4 334.8L275.82 334.51L276.17 334.16L276.46 333.76L276.71 333.3L276.92 332.79L277.12 332.24L277.3 331.65L277.48 331.03L277.68 330.37L277.9 329.68L278.15 328.98L278.45 328.25L278.8 327.51L279.23 326.76L279.73 326L280.32 325.24L281.02 324.49L281.83 323.74L282.76 323L283.83 322.28L285.04 321.57L286.41 320.89L287.95 320.24L289.67 319.62L291.59 319.03L293.7 318.49L296.03 317.99L297.11 317.79L298.11 317.61L299.06 317.46L299.94 317.33L300.77 317.23L301.55 317.15L302.29 317.09L302.98 317.06L303.63 317.05L304.26 317.06L304.85 317.1ZM386.51 307.56L386.58 307.68L386.65 307.82L386.72 307.95L386.8 308.08L386.87 308.22L386.94 308.35L387.01 308.48L387.07 308.61L387.14 308.73L387.2 308.84L387.26 308.95L387.31 309.05L387.36 309.15L387.4 309.23L393.79 319.87L393.41 323.76L393.98 324.01L394.52 324.18L395.03 324.26L395.52 324.28L395.98 324.24L396.4 324.14L396.8 324.01L397.16 323.85L397.49 323.66L397.78 323.47L398.03 323.28L398.24 323.1L398.41 322.94L398.54 322.81L398.63 322.72L398.67 322.68L398.67 322.71L398.61 322.8L398.51 322.98L398.36 323.25L398.16 323.62L397.9 324.1L397.59 324.7L397.22 325.43L396.79 326.31L396.3 327.34L395.76 328.53L395.33 329.38L394.85 330.13L394.33 330.8L393.77 331.38L393.17 331.89L392.54 332.32L391.86 332.68L391.16 332.97L390.43 333.21L389.67 333.38L388.89 333.51L388.08 333.59L387.26 333.63L386.42 333.64L385.56 333.61L384.69 333.55L383.81 333.47L382.92 333.38L382.03 333.27L381.13 333.16L380.23 333.04L379.34 332.92L378.45 332.81L377.56 332.71L376.68 332.63L375.82 332.56L374.96 332.52L373.68 332.5L372.43 332.49L371.21 332.49L370.01 332.52L368.84 332.56L367.7 332.62L366.57 332.7L365.46 332.79L364.38 332.9L363.31 333.03L362.25 333.17L361.21 333.33L360.18 333.51L359.17 333.71L358.16 333.93L357.16 334.16L356.16 334.41L355.17 334.67L354.19 334.96L353.2 335.26L352.22 335.58L351.23 335.91L350.24 336.27L349.25 336.64L348.24 337.03L347.23 337.44L346.22 337.86L346.05 337.47L345.93 337.12L345.84 336.82L345.79 336.55L345.76 336.32L345.77 336.11L345.8 335.93L345.86 335.78L345.94 335.64L346.04 335.52L346.16 335.41L346.29 335.31L346.44 335.22L346.59 335.12L346.75 335.03L346.92 334.93L347.09 334.82L347.26 334.7L347.43 334.57L347.59 334.41L347.75 334.23L347.9 334.03L348.04 333.8L348.16 333.53L348.27 333.22L348.36 332.88L348.43 332.49L348.44 332.38L348.47 332.29L348.5 332.19L348.53 332.1L348.57 332.02L348.62 331.94L348.67 331.86L348.72 331.79L348.78 331.72L348.84 331.65L348.91 331.58L348.98 331.51L349.05 331.45L349.13 331.38L349.21 331.31L349.29 331.24L349.37 331.17L349.46 331.09L349.55 331.01L349.64 330.93L349.74 330.85L349.83 330.75L349.93 330.66L350.02 330.56L350.12 330.45L350.22 330.33L350.32 330.21L345.91 327.41L349.47 320.8L349.92 320.02L350.34 319.3L350.74 318.64L351.1 318.05L351.45 317.52L351.78 317.05L352.09 316.63L352.39 316.26L352.68 315.94L352.98 315.66L353.27 315.42L353.56 315.22L353.87 315.06L354.18 314.93L354.51 314.82L354.86 314.75L355.23 314.69L355.63 314.66L356.06 314.64L356.52 314.63L357.01 314.63L357.55 314.64L358.14 314.66L358.77 314.67L359.45 314.69L360.19 314.7L360.99 314.7L361 315.72L361.08 316.21L360.99 314.7L362.4 313.5L363.8 312.46L365.21 311.56L366.62 310.8L368.05 310.16L369.51 309.62L370.98 309.18L372.49 308.81L374.04 308.52L375.63 308.28L377.27 308.08L378.96 307.92L380.71 307.77L382.52 307.63L384.41 307.48L386.37 307.31L386.44 307.43L386.51 307.56ZM373.46 322.27L373.83 322.27L372.46 322.26L372.53 322.26L373.46 322.27ZM374.35 322.27L375.19 322.25L375.33 322.24L374.09 322.27L374.35 322.27ZM372.31 322.25L370.94 322.18L371.58 322.22L372.31 322.25ZM375.98 322.21L376.62 322.18L375.54 322.23L375.98 322.21ZM376.71 322.17L377.36 322.13L377.66 322.11L376.68 322.17L376.71 322.17ZM370.61 322.15L370.74 322.16L369.31 322L369.64 322.05L370.61 322.15ZM387.45 322.11L387.45 322.11L387.47 322.11L387.45 322.11ZM377.92 322.09L378.07 322.07L377.89 322.09L377.92 322.09ZM387.21 322.07L387.2 322.07L387.22 322.08L387.21 322.07ZM387.08 322.06L387.05 322.05L387.09 322.06L387.08 322.06ZM386.96 322.04L387.04 322.05L387.04 322.05L386.96 322.04ZM378.43 322.05L378.55 322.04L378.52 322.04L378.43 322.05ZM386.95 322.04L386.94 322.04L386.95 322.04L386.95 322.04ZM379.16 322.01L379.26 322.01L379.01 322.01L379.16 322.01ZM379.34 322L379.54 322L379.6 322L379.3 322.01L379.34 322ZM386.7 322L386.67 322L386.68 322L386.7 322ZM379.66 322L379.76 321.99L380.01 321.99L380.27 321.98L380.44 321.98L380.02 321.99L379.66 322ZM386.55 321.98L386.54 321.98L386.55 321.98L386.55 321.98ZM380.54 321.97L380.82 321.96L380.51 321.97L380.54 321.97ZM386.41 321.96L386.41 321.96L386.42 321.97L386.41 321.96ZM368.67 321.91L369.02 321.96L367.61 321.7L367.72 321.73L368.67 321.91ZM380.97 321.96L381.43 321.95L381.13 321.96L380.97 321.96ZM381.47 321.95L381.56 321.94L381.45 321.95L381.47 321.95ZM386.17 321.93L386.14 321.93L386.15 321.93L386.17 321.93ZM382 321.93L382.02 321.93L381.95 321.93L382 321.93ZM382.54 321.92L382.58 321.92L382.49 321.92L382.54 321.92ZM385.91 321.9L385.89 321.9L385.9 321.9L385.91 321.9ZM383.07 321.9L383.11 321.9L383.04 321.9L383.07 321.9ZM383.58 321.89L383.59 321.89L383.54 321.89L383.58 321.89ZM384.01 321.88L384.1 321.88L384.06 321.88L384.01 321.88ZM384.48 321.87L384.54 321.87L384.5 321.87L384.48 321.87ZM385.5 321.87L385.49 321.87L385.48 321.87L385.5 321.87ZM367.42 321.66L366.12 321.29L366.79 321.5L367.42 321.66ZM365.89 321.22L365.97 321.25L364.73 320.74L365.04 320.89L365.89 321.22ZM364.24 320.5L364.49 320.62L363.4 319.96L363.51 320.04L364.24 320.5ZM363.25 319.83L362.35 319L362.85 319.52L363.25 319.83ZM362.27 318.92L362.3 318.95L361.62 317.9L361.79 318.25L362.27 318.92ZM361.41 317.49L361.51 317.69L361.12 316.46L361.14 316.65L361.41 317.49Z" id="a2SznJ0Hm1"></path><path d="M349.06 440.64C349.6 439.35 350.86 439.57 351.72 438.96C344.04 439.87 339.76 442.68 335.57 436.03C335.07 435.85 331.09 434.39 330.59 434.21C330.59 434.21 320.13 432.91 332.75 448.93C341.62 441.47 347.96 443.28 349.06 440.64Z" id="a2wAHi76tH"></path></defs><g><g><g><use xlink:href="#c1QuRzsNro" opacity="1" fill="#ffa712" fill-opacity="1"></use><g><use xlink:href="#c1QuRzsNro" opacity="1" fill-opacity="0" stroke="#000000" stroke-width="1" stroke-opacity="0"></use></g></g><g><use xlink:href="#a23qvHidLC" opacity="1" fill="#f4bd62" fill-opacity="1"></use><g><use xlink:href="#a23qvHidLC" opacity="1" fill-opacity="0" stroke="#000000" stroke-width="1" stroke-opacity="0"></use></g></g><g><use xlink:href="#gHFZcCvPz" opacity="1" fill="#ffa50e" fill-opacity="1"></use><g><use xlink:href="#gHFZcCvPz" opacity="1" fill-opacity="0" stroke="#000000" stroke-width="1" stroke-opacity="0"></use></g></g><g><use xlink:href="#esUAMwU4H" opacity="1" fill="#f6820c" fill-opacity="1"></use><g><use xlink:href="#esUAMwU4H" opacity="1" fill-opacity="0" stroke="#000000" stroke-width="1" stroke-opacity="0"></use></g></g><g><g><filter id="shadow3842394" x="88.36" y="123.36" width="477.31" height="519.81" filterUnits="userSpaceOnUse" primitiveUnits="userSpaceOnUse"><feFlood></feFlood><feComposite in2="SourceAlpha" operator="in"></feComposite><feGaussianBlur stdDeviation="1"></feGaussianBlur><feOffset dx="1" dy="1" result="afterOffset"></feOffset><feFlood flood-color="#000000" flood-opacity="0.5"></feFlood><feComposite in2="afterOffset" operator="in"></feComposite><feMorphology operator="dilate" radius="1"></feMorphology><feComposite in2="SourceAlpha" operator="out"></feComposite></filter><path d="M347.02 627.69L555.67 511.32C519.92 291.14 500.06 168.81 496.09 144.35C494.22 132.87 480.14 128.33 471.92 136.56C446.95 161.58 322.1 286.67 97.36 511.85C221.84 581.34 290.99 619.96 304.82 627.68C317.93 635 333.9 635 347.02 627.69" id="a3Ith3CGre" fill="none" stroke="white" filter="url(#shadow3842394)"></path></g><use xlink:href="#e2K73keEh" opacity="1" fill="#fde068" fill-opacity="1"></use><g><use xlink:href="#e2K73keEh" opacity="1" fill-opacity="0" stroke="#000000" stroke-width="1" stroke-opacity="0"></use></g></g><g><use xlink:href="#bo7yMOBb" opacity="1" fill="#fcca3f" fill-opacity="1"></use><g><use xlink:href="#bo7yMOBb" opacity="1" fill-opacity="0" stroke="#000000" stroke-width="1" stroke-opacity="0"></use></g></g><g><g><filter id="shadow5870818" x="88.36" y="499.17" width="477.31" height="144" filterUnits="userSpaceOnUse" primitiveUnits="userSpaceOnUse"><feFlood></feFlood><feComposite in2="SourceAlpha" operator="in"></feComposite><feGaussianBlur stdDeviation="1"></feGaussianBlur><feOffset dx="1" dy="1" result="afterOffset"></feOffset><feFlood flood-color="#000000" flood-opacity="0.5"></feFlood><feComposite in2="afterOffset" operator="in"></feComposite><feMorphology operator="dilate" radius="1"></feMorphology><feComposite in2="SourceAlpha" operator="out"></feComposite></filter><path d="M304.82 624.25C291.1 616.64 222.51 578.58 99.03 510.08L97.36 511.85C221.84 581.34 290.99 619.96 304.82 627.68C317.93 635 333.9 635 347.02 627.69C360.93 619.93 430.48 581.14 555.67 511.32L555.16 508.17L347.02 624.26C327.63 629.13 313.56 629.13 304.82 624.25Z" id="aJBYKAluG" fill="white" fill-opacity="1" filter="url(#shadow5870818)"></path></g><use xlink:href="#agCf2O3Zu" opacity="1" fill="#eeab37" fill-opacity="1"></use></g><g><use xlink:href="#aqGuW0F7z" opacity="1" fill="#ffc24a" fill-opacity="1"></use><g><use xlink:href="#aqGuW0F7z" opacity="1" fill-opacity="0" stroke="#000000" stroke-width="1" stroke-opacity="0"></use></g></g><g><use xlink:href="#a2SznJ0Hm1" opacity="1" fill="#49235a" fill-opacity="1"></use><g><use xlink:href="#a2SznJ0Hm1" opacity="1" fill-opacity="0" stroke="#000000" stroke-width="1" stroke-opacity="0"></use></g></g><g><use xlink:href="#a2wAHi76tH" opacity="1" fill="#000000" fill-opacity="0"></use><g><use xlink:href="#a2wAHi76tH" opacity="1" fill-opacity="0" stroke="#000000" stroke-width="1" stroke-opacity="0"></use></g></g></g></g></svg>